<svg width="126" height="133" viewBox="0 0 126 133" fill="none" xmlns="http://www.w3.org/2000/svg">
<g id="Frame" clip-path="url(#clip0_518_9847)">
<g id="lock">
<path id="Vector" fill-rule="evenodd" clip-rule="evenodd" d="M11.41 38.4C25.14 31.66 42.06 54.4 66.33 15.4C71.92 6.4 86.57 1.25999 96.41 8.58999C100.17 11.39 102.09 15.8 103.31 20.2C107.84 36.46 97.86 44.27 87.83 55.2C83.04 60.4 78.96 69 84.35 75.36C94.97 87.88 116.13 70.15 124.02 91.49C126.212 97.1512 126.318 103.408 124.32 109.14C123.012 113.306 120.981 117.208 118.32 120.67C106.14 136.5 76.46 137.55 66.37 118.83C60.28 107.52 62.77 91.65 52.1 82.83C39.03 72.02 26.33 91.03 12.6 87.41C-5.94997 82.42 -2.02997 44.99 11.41 38.4Z" fill="#FFEEE1"/>
<path id="Vector_2" fill-rule="evenodd" clip-rule="evenodd" d="M92.0201 51.27L80.86 53.7L78.57 43.55L74.46 25.33C73.4978 21.3224 71.1026 17.8053 67.726 15.4419C64.3495 13.0785 60.2249 12.0321 56.13 12.5C55.457 12.5812 54.7892 12.7014 54.13 12.86C49.7794 13.9015 46.0206 16.6283 43.6802 20.4407C41.3399 24.2532 40.6096 28.8392 41.65 33.19L47.39 57.4L36.91 59.94L34.81 51.58L30.91 35.79C29.3026 29.0572 30.2544 21.9673 33.5806 15.8968C36.9069 9.82639 42.3703 5.20858 48.91 2.94001V2.94001C49.77 2.64001 50.65 2.39001 51.55 2.17001C58.7464 0.445956 66.3329 1.64934 72.6426 5.51575C78.9522 9.38216 83.4689 15.5953 85.2 22.79L92.0201 51.27Z" fill="#FFD36A"/>
<path id="Vector_3" fill-rule="evenodd" clip-rule="evenodd" d="M48.87 2.90997C46.4438 3.88178 44.2495 5.35373 42.43 7.22997C39.8489 10.2761 37.9345 13.829 36.81 17.66C35.2654 22.9003 35.0387 28.441 36.15 33.79C38.34 42.96 39.93 48.89 39.93 48.89C38.3128 49.9475 36.5984 50.8483 34.81 51.58L30.91 35.79C29.2921 29.058 30.2341 21.9649 33.5532 15.8886C36.8722 9.81233 42.3313 5.1866 48.87 2.90997Z" fill="black"/>
<path id="Vector_4" fill-rule="evenodd" clip-rule="evenodd" d="M83.9702 41.22C83.8129 41.5425 83.5931 41.8306 83.3235 42.0675C83.054 42.3044 82.7402 42.4854 82.4001 42.6C81.1698 43.0906 79.8833 43.4265 78.5702 43.6L74.4601 25.38C73.4979 21.3724 71.1027 17.8553 67.7262 15.4919C64.3496 13.1285 60.225 12.0821 56.1302 12.55L55.8901 12.35C63.7601 9.93002 72.2801 12.35 76.9901 19.4C79.4901 23.14 80.5601 27.54 81.6101 31.86C82.1801 34.19 82.7901 36.5 83.3901 38.86C83.5101 39.24 84.1402 40.73 83.9702 41.22Z" fill="black"/>
<path id="Vector_5" fill-rule="evenodd" clip-rule="evenodd" d="M106.9 91.71C101.49 120.58 45.37 130.33 37.45 97.29C33.8 82.03 26.74 49.51 26.74 49.51L33.81 47.79L95.81 32.94L106.54 80.79C107.428 84.3639 107.551 88.0853 106.9 91.71Z" fill="#FFD36A"/>
<path id="Vector_6" fill-rule="evenodd" clip-rule="evenodd" d="M106.9 91.71C101.49 120.58 45.37 130.33 37.45 97.29C33.8 82.03 26.74 49.51 26.74 49.51L33.81 47.79L39.68 71.79C39.68 71.79 42.62 85.6 44.68 92.41C46.39 97.97 48.9 104.09 53.8 107.58C58.7 111.07 65.48 112.07 71.26 111.95C75.0757 111.816 78.8532 111.143 82.48 109.95C90.27 107.47 96.87 104.19 102.33 98.02C104.099 96.1558 105.606 94.06 106.81 91.79C106.835 91.7584 106.866 91.7314 106.9 91.71V91.71Z" fill="black"/>
<path id="Vector_7" d="M72.21 72.91C76.0649 72.91 79.19 69.785 79.19 65.93C79.19 62.0751 76.0649 58.95 72.21 58.95C68.355 58.95 65.23 62.0751 65.23 65.93C65.23 69.785 68.355 72.91 72.21 72.91Z" fill="#CCA343"/>
<path id="Vector_8" fill-rule="evenodd" clip-rule="evenodd" d="M75.2501 68.66L71.0601 69.66L71.33 86.76L82.3801 84.11L75.2501 68.66Z" fill="#CCA343"/>
<path id="Vector_9" fill-rule="evenodd" clip-rule="evenodd" d="M81.8102 83.95L81.3502 84.04L79.3502 84.44C78.5202 84.61 77.7002 84.8 76.8802 85C75.1602 85.43 73.4601 85.9 71.7401 86.31L71.3901 86.39L71.1701 86.48L71.2202 86.72C71.3402 86.72 71.4502 86.72 71.5602 86.72C71.7288 86.6929 71.8957 86.6562 72.0602 86.61C74.5202 86.05 76.9302 85.29 79.4102 84.79L81.4102 84.4C81.6052 84.3771 81.7988 84.3438 81.9901 84.3C82.0345 84.2886 82.0752 84.2661 82.1084 84.2346C82.1417 84.2031 82.1663 84.1637 82.1802 84.12C82.177 83.9948 82.1463 83.8719 82.0902 83.76C81.9902 83.54 81.8201 83.29 81.7701 83.17L80.6101 80.68C79.8901 79.14 79.1501 77.62 78.4601 76.07C78.0001 75.07 77.5602 74.01 77.1502 72.95C77.0002 72.59 76.7301 72.21 76.5501 71.84C76.5209 71.786 76.4974 71.729 76.4802 71.67L77.0402 71.18C77.3258 70.8392 77.5864 70.4783 77.8202 70.1C78.0593 69.7299 78.2699 69.3421 78.4502 68.94C78.9552 67.8681 79.2083 66.6948 79.1902 65.51C79.1717 64.3284 78.8771 63.1675 78.3301 62.12C77.8668 61.3439 77.2439 60.6751 76.5026 60.1579C75.7613 59.6407 74.9185 59.2869 74.0302 59.12C72.4454 58.7151 70.7682 58.8888 69.3001 59.61C69.1249 59.6306 68.957 59.6922 68.8102 59.79C68.8087 59.81 68.8087 59.83 68.8102 59.85L68.9201 60.01H68.9802C69.1209 59.9469 69.2549 59.8699 69.3802 59.78C70.7953 59.116 72.3988 58.9708 73.9102 59.37C74.7511 59.5347 75.5477 59.8756 76.2475 60.3702C76.9473 60.8649 77.5344 61.5021 77.9702 62.24C78.5011 63.238 78.7824 64.3496 78.7902 65.48C78.8073 66.61 78.5644 67.7289 78.0801 68.75C77.8984 69.138 77.6948 69.5152 77.4702 69.88C77.2451 70.2314 76.9944 70.5656 76.7202 70.88L76.1602 71.37C76.1246 71.3984 76.0968 71.4352 76.0794 71.4772C76.0619 71.5191 76.0553 71.5648 76.0602 71.61C76.093 71.7192 76.1331 71.8261 76.1802 71.93C76.3502 72.29 76.6302 72.66 76.7602 73.01C77.1802 74.07 77.6201 75.11 78.0801 76.15C78.7801 77.7 79.5101 79.22 80.2401 80.76L81.3901 83.25C81.3901 83.37 81.6101 83.62 81.7101 83.84L81.8102 83.95Z" fill="black"/>
<path id="Vector_10" fill-rule="evenodd" clip-rule="evenodd" d="M88.8799 38.72L88.8099 38.79L88.4299 39.25C87.0099 40.96 85.6599 42.72 84.2499 44.44C83.7799 45.01 83.2999 45.57 82.8199 46.14L82.2 46.86L82.3799 47.02L83.0199 46.32C83.5199 45.76 84.0199 45.19 84.4599 44.61C85.8599 42.89 87.1999 41.11 88.6099 39.39C88.7299 39.24 88.8599 39.09 88.9799 38.93L89.0699 38.81L88.8799 38.72Z" fill="black"/>
<path id="Vector_11" fill-rule="evenodd" clip-rule="evenodd" d="M91.04 39.27C91.0042 39.3008 90.9708 39.3342 90.9401 39.37C90.8913 39.4187 90.8478 39.4723 90.8101 39.53C90.1601 40.34 89.5401 41.18 88.9301 42.02C87.3601 44.21 85.9301 46.47 84.3101 48.65L84.5301 48.8C86.1001 46.62 87.5301 44.36 89.1301 42.17C89.7401 41.32 90.3501 40.49 90.9901 39.67C91.0388 39.6213 91.0824 39.5677 91.1201 39.51C91.1471 39.4723 91.1705 39.4321 91.1901 39.39L91.04 39.27Z" fill="black"/>
<path id="Vector_12" fill-rule="evenodd" clip-rule="evenodd" d="M92.26 41.88C92.16 42.02 92.06 42.15 91.97 42.3C91.14 43.58 90.34 44.89 89.47 46.15C88.6 47.41 87.89 48.37 87.09 49.47L86.5 50.31L86.7 50.45L87.44 49.45C88.44 48.14 89.36 46.8 90.26 45.45C90.87 44.54 91.48 43.63 92.03 42.69L92.42 41.97L92.26 41.88Z" fill="black"/>
<path id="Vector_13" fill-rule="evenodd" clip-rule="evenodd" d="M92.72 50.79L92.48 51.12L92.33 51.34C92.05 51.79 91.78 52.24 91.51 52.69L91.75 52.84C92.06 52.32 92.39 51.84 92.68 51.3C92.75 51.16 92.82 51.03 92.88 50.89L92.72 50.79Z" fill="black"/>
<path id="Vector_14" fill-rule="evenodd" clip-rule="evenodd" d="M50.6299 94.99C50.6899 94.87 50.7699 94.76 50.8299 94.65L50.9399 94.41C51.7499 92.62 52.6199 90.85 53.5299 89.11C54.5299 87.17 55.6099 85.25 56.7299 83.39L56.4899 83.24C55.3599 85.11 54.2899 87.03 53.2699 88.97C52.3599 90.72 51.4999 92.5 50.6799 94.29C50.6474 94.3718 50.6107 94.4519 50.5699 94.53L50.45 94.91L50.6299 94.99Z" fill="black"/>
<path id="Vector_15" fill-rule="evenodd" clip-rule="evenodd" d="M51.96 97.61L52.02 97.51C52.0935 97.3748 52.157 97.2344 52.21 97.09C52.88 95.52 53.57 93.95 54.3 92.39C54.74 91.47 55.2 90.57 55.66 89.67C55.78 89.44 55.89 89.21 56 88.98L55.78 88.86L55.39 89.52C54.91 90.42 54.47 91.34 54.03 92.27C53.3 93.82 52.62 95.41 51.95 96.98C51.8817 97.1162 51.8215 97.2565 51.77 97.4C51.77 97.4 51.77 97.48 51.77 97.52L51.96 97.61Z" fill="black"/>
<path id="Vector_16" fill-rule="evenodd" clip-rule="evenodd" d="M54.39 98.25L54.52 98.02C54.5391 97.9682 54.5625 97.918 54.59 97.87C55.09 96.68 55.59 95.49 56.08 94.31L55.83 94.21C55.38 95.26 54.92 96.3 54.49 97.36C54.42 97.55 54.33 97.73 54.27 97.92L54.21 98.18L54.39 98.25Z" fill="black"/>
<path id="Vector_17" fill-rule="evenodd" clip-rule="evenodd" d="M56.3502 100.16C56.4258 100.064 56.4959 99.9639 56.5602 99.86C56.6202 99.76 56.6702 99.65 56.7202 99.55C57.0402 98.87 57.3502 98.18 57.6602 97.55C57.7202 97.41 57.7901 97.28 57.8401 97.14C57.8901 97 57.8401 97.07 57.8401 97.03L57.6101 96.92L57.5501 97.01C57.4701 97.14 57.4101 97.28 57.3401 97.41C57.0101 98.09 56.7101 98.78 56.3901 99.46C56.3401 99.57 56.2801 99.67 56.2401 99.78C56.2001 99.89 56.1801 100.01 56.1401 100.12L56.3502 100.16Z" fill="black"/>
<path id="Vector_18" fill-rule="evenodd" clip-rule="evenodd" d="M65.6599 3.78998C65.3999 4.22998 65.1499 4.67998 64.8999 5.13998C64.5399 5.80998 64.1799 6.49998 63.7999 7.13998C63.5299 7.61998 63.25 8.13998 62.95 8.53998L63.1499 8.66998C63.4599 8.21998 63.7499 7.74998 64.0299 7.26998C64.4099 6.59998 64.7599 5.89998 65.1099 5.21998C65.3499 4.75998 65.5799 4.29998 65.8199 3.84998L65.6599 3.78998Z" fill="white"/>
<path id="Vector_19" fill-rule="evenodd" clip-rule="evenodd" d="M67.4 4.14001C66.83 5.09001 66.25 6.04002 65.71 7.01002C65.52 7.34002 65.33 7.67002 65.16 8.01002L65.04 8.27002L65.24 8.38002L65.71 7.56002C66.33 6.45002 66.94 5.33002 67.56 4.24002L67.4 4.14001Z" fill="white"/>
<path id="Vector_20" fill-rule="evenodd" clip-rule="evenodd" d="M68.5299 4.90997L68.4599 4.99997C68.2699 5.25997 68.1099 5.55997 67.9399 5.83997C67.7699 6.11997 67.6 6.39997 67.45 6.69997C67.4539 6.73319 67.4539 6.76676 67.45 6.79997L67.6599 6.91998L68.7799 5.03997L68.5299 4.90997Z" fill="white"/>
<path id="Vector_21" fill-rule="evenodd" clip-rule="evenodd" d="M69.5801 5.67999C69.5801 5.67999 69.5201 5.67999 69.5001 5.67999C69.4381 5.76846 69.3908 5.8664 69.3601 5.96999L69.5701 6.08999C69.6423 6.01245 69.703 5.92488 69.7501 5.82999C69.7601 5.79741 69.7601 5.76257 69.7501 5.72999L69.5801 5.67999Z" fill="white"/>
<path id="Vector_22" fill-rule="evenodd" clip-rule="evenodd" d="M73.6601 31.66C73.7401 31.45 73.8301 31.25 73.9001 31.04C74.1701 30.21 74.3601 29.36 74.6601 28.55C74.8975 27.8632 75.1849 27.1948 75.5201 26.55C77.84 22.21 80.1701 20.95 82.6001 20.99C84.8601 20.99 87.18 22.15 89.6 22.9C92.02 23.65 94.4501 24.03 97.0201 22.81C98.882 21.9409 100.374 20.438 101.23 18.57C102.062 16.6541 102.637 14.6366 102.94 12.57C103.11 11.7 103.26 10.84 103.45 9.98999L102.95 9.87C102.71 10.71 102.5 11.57 102.31 12.44C101.963 14.4365 101.385 16.3861 100.59 18.25C99.7991 19.9696 98.4294 21.357 96.72 22.17C93.91 23.53 91.2301 22.77 88.6301 21.89C85.6801 20.89 82.85 19.73 80.11 20.89C78.4 21.59 76.7 23.18 75.05 26.3C74.6138 27.1226 74.2524 27.9827 73.9701 28.87C73.728 29.5641 73.5276 30.272 73.3701 30.99C73.3701 31.18 73.3701 31.36 73.3101 31.55L73.6601 31.66Z" fill="#9433F5"/>
<path id="Vector_23" fill-rule="evenodd" clip-rule="evenodd" d="M23.2802 104.87C23.4102 104.32 23.5901 103.78 23.7701 103.23C25.3301 98.33 28.9902 93.31 33.1902 91.8C36.3402 90.66 39.7002 91.53 42.4402 95.91C43.8802 98.21 44.1502 102.91 44.6602 107.78C45.1302 112.28 45.8102 116.87 47.6602 119.78C49.5102 122.69 52.4602 123.99 57.4702 122.16C58.1299 121.908 58.7686 121.603 59.3802 121.25C60.2802 120.74 61.1401 120.13 61.9901 119.59L61.7002 119.11C60.8302 119.61 59.9402 120.11 59.0402 120.63C58.4548 120.948 57.8464 121.222 57.2202 121.45C52.6802 123.1 49.9802 121.95 48.3202 119.35C46.4902 116.52 45.8601 112.05 45.3901 107.68C44.8501 102.68 44.5002 97.87 43.0102 95.52C40.0102 90.79 36.3401 89.91 32.9301 91.17C28.5801 92.76 24.5102 97.89 23.1902 103.06C23.0523 103.629 22.952 104.207 22.8901 104.79L23.2802 104.87Z" fill="#9433F5"/>
<path id="Vector_24" fill-rule="evenodd" clip-rule="evenodd" d="M89.6001 14.14C89.6512 14.1738 89.7047 14.2038 89.7601 14.23C89.9828 14.255 90.2075 14.255 90.4301 14.23C92.9758 14.366 95.478 13.5296 97.4301 11.89C98.7075 10.8017 99.7634 9.4776 100.54 7.99C101.056 7.02476 101.481 6.01376 101.81 4.97L101.34 4.81C100.974 5.81974 100.522 6.79658 99.9901 7.73C99.2217 9.13431 98.2053 10.3879 96.9901 11.43C95.1535 12.9771 92.7986 13.7705 90.4001 13.65C90.1871 13.6348 89.9732 13.6348 89.7601 13.65C89.7052 13.6654 89.6516 13.6855 89.6001 13.71V14.14Z" fill="#279FF2"/>
<path id="Vector_25" fill-rule="evenodd" clip-rule="evenodd" d="M37.5801 96.84C37.9101 97.14 38.2201 97.47 38.5801 97.84C39.8624 99.0948 40.9359 100.546 41.7601 102.14C42.78 104.133 43.1672 106.391 42.8701 108.61C42.2201 112.75 39.9201 117.32 39.5301 121.66C39.2582 123.829 39.693 126.028 40.7701 127.93C41.2487 128.723 41.838 129.443 42.5201 130.07L42.9001 129.69C42.291 129.066 41.7635 128.367 41.3301 127.61C40.3492 125.816 39.9541 123.76 40.2001 121.73C40.5901 117.4 42.8601 112.83 43.4901 108.73C43.8125 106.386 43.4002 104 42.3101 101.9C41.5004 100.211 40.3654 98.6991 38.9701 97.45C38.6169 97.1471 38.2426 96.8698 37.8501 96.62L37.5801 96.84Z" fill="#279FF2"/>
<path id="Vector_26" fill-rule="evenodd" clip-rule="evenodd" d="M24.25 32.73C23.9078 31.9369 23.7769 31.0687 23.87 30.21C23.9502 29.6593 24.1443 29.1314 24.4401 28.66C25.2601 27.32 26.78 26.29 28.15 25.12C29.6661 24.0633 30.7353 22.4809 31.15 20.68C31.49 18.58 30.7 16.68 29.72 14.88C28.6825 13.2472 27.9065 11.4624 27.42 9.59C27.2524 8.66099 27.3038 7.70568 27.5701 6.8C27.9707 5.49494 28.6306 4.28413 29.5101 3.24C30.4007 2.17822 31.407 1.21897 32.5101 0.380001L32.22 0C31.0808 0.846859 30.0409 1.81969 29.12 2.9C28.1761 3.98983 27.468 5.26319 27.0401 6.64C26.7493 7.61251 26.6843 8.63857 26.8501 9.64C27.3367 11.5818 28.1336 13.4322 29.21 15.12C30.12 16.84 30.9101 18.57 30.6001 20.54C30.2153 22.2154 29.2207 23.6877 27.81 24.67C26.39 25.87 24.8101 26.95 23.9801 28.34C23.6385 28.8884 23.4264 29.5074 23.36 30.15C23.3066 31.0977 23.5141 32.042 23.96 32.88L24.25 32.73Z" fill="#279FF2"/>
<path id="Vector_27" fill-rule="evenodd" clip-rule="evenodd" d="M113.91 66.44C113.91 66.44 113.91 66.44 113.84 66.44C113.77 66.44 113.7 66.69 113.63 66.82C112.93 68.09 112.21 69.33 111.54 70.61C111.14 71.37 110.75 72.13 110.4 72.92C110.356 72.9953 110.323 73.076 110.3 73.16C110.259 73.2839 110.229 73.411 110.21 73.54L110.63 73.72C110.706 73.6241 110.776 73.5239 110.84 73.42C110.896 73.3162 110.946 73.2094 110.99 73.1C111.89 71.1 112.99 69.26 113.99 67.36C114.11 67.15 114.22 66.94 114.33 66.73L113.91 66.44Z" fill="#F56C2C"/>
<path id="Vector_28" fill-rule="evenodd" clip-rule="evenodd" d="M108.92 67.3L109.44 67.63C111.19 68.72 112.92 69.85 114.67 70.94C115.06 71.19 115.44 71.45 115.85 71.66C115.95 71.7159 116.054 71.766 116.16 71.81L116.39 71.44L116.2 71.29C115.944 71.0985 115.677 70.9215 115.4 70.76L111.32 68.19L109.32 66.96C109.25 66.96 109.19 66.85 109.12 66.84C109.05 66.83 109.12 66.84 109.12 66.84L108.9 67.2C108.9 67.2 108.93 67.3 108.92 67.3Z" fill="#F56C2C"/>
<path id="Vector_29" fill-rule="evenodd" clip-rule="evenodd" d="M111.41 66.34C111.41 66.52 111.47 66.69 111.52 66.86C111.95 68.41 112.42 69.92 112.92 71.44C113.06 71.86 113.22 72.28 113.39 72.7L113.85 72.53C113.73 72.19 113.64 71.86 113.54 71.53C113.12 70.17 112.76 68.8 112.3 67.44C112.223 67.1821 112.133 66.9284 112.03 66.68C111.95 66.52 111.85 66.37 111.75 66.21L111.41 66.34Z" fill="#F56C2C"/>
<path id="Vector_30" fill-rule="evenodd" clip-rule="evenodd" d="M109.73 70.59C110.1 70.48 110.47 70.39 110.84 70.26C111.68 69.96 112.5 69.58 113.33 69.2C114.4 68.747 115.433 68.2121 116.42 67.6L116.74 67.37L116.52 67L115.97 67.28C115.26 67.65 114.54 68.04 113.8 68.38C112.68 68.9 111.52 69.32 110.42 69.83C110.14 69.96 109.87 70.11 109.6 70.25L109.73 70.59Z" fill="#F56C2C"/>
<path id="Vector_31" fill-rule="evenodd" clip-rule="evenodd" d="M21.2601 42.52C21.1001 42.71 20.9301 42.9 20.7701 43.11C20.1601 43.92 19.6401 44.79 19.0901 45.64C17.6301 47.87 16.1701 50.1 14.7901 52.37C14.6301 52.62 14.4901 52.88 14.3401 53.13L14.7201 53.38C14.8001 53.28 14.8801 53.19 14.9601 53.08C15.0401 52.97 15.2901 52.59 15.4501 52.34C17.3201 49.48 19.1001 46.56 20.9901 43.71C21.0901 43.55 21.2101 43.4 21.3001 43.23C21.3986 43.0663 21.4855 42.8959 21.5601 42.72L21.2601 42.52Z" fill="#F56C2C"/>
<path id="Vector_32" fill-rule="evenodd" clip-rule="evenodd" d="M12.27 44.87C12.57 45.11 12.87 45.36 13.19 45.59C16.04 47.59 19.19 49.19 22 51.31L22.28 50.94C21.35 50.22 20.39 49.55 19.41 48.94C17.58 47.75 15.7 46.64 13.87 45.45L13.33 45.09L12.48 44.6L12.27 44.87Z" fill="#F56C2C"/>
<path id="Vector_33" fill-rule="evenodd" clip-rule="evenodd" d="M16.6799 43.1C16.6799 43.28 16.6799 43.45 16.6799 43.62C16.6799 43.79 16.6799 43.85 16.7299 43.96C16.8799 45.1 17.0799 46.23 17.2999 47.35C17.6199 49.04 17.9499 50.72 18.2999 52.35C18.3699 52.68 18.4299 53.02 18.5299 53.35L18.6299 53.59L19.1099 53.49C19.1099 53.38 19.1099 53.28 19.1099 53.17C19.1099 53.06 19.0199 52.68 18.9699 52.43C18.3899 49.6 17.7499 46.8 17.2999 43.95C17.2999 43.79 17.2999 43.63 17.2199 43.47C17.1399 43.31 17.1199 43.17 17.0699 43.01L16.6799 43.1Z" fill="#F56C2C"/>
<path id="Vector_34" fill-rule="evenodd" clip-rule="evenodd" d="M11.5901 49.17C11.8501 49.17 12.1201 49.17 12.3801 49.17C13.4301 49.17 14.4801 48.96 15.5201 48.82C18.2501 48.46 20.9801 48.03 23.7001 47.59L24.6001 47.43L24.55 47.01C24.11 47.01 23.6701 47.08 23.2401 47.13C20.1101 47.5 17.02 48.13 13.89 48.52C13.35 48.58 12.8001 48.63 12.2601 48.7C12.0201 48.7 11.7901 48.78 11.5601 48.82L11.5901 49.17Z" fill="#F56C2C"/>
</g>
</g>
<defs>
<clipPath id="clip0_518_9847">
<rect width="125.74" height="132.61" fill="white"/>
</clipPath>
</defs>
</svg>
