<svg width="76" height="54" viewBox="0 0 76 54" fill="none" xmlns="http://www.w3.org/2000/svg">
<g id="Gift card color" clip-path="url(#clip0_492_9929)">
<g id="Group 10">
<path id="Vector" d="M66.783 8.63281H10.1583C6.44046 8.63281 3.42651 11.663 3.42651 15.4008V46.8191C3.42651 50.5569 6.44046 53.5871 10.1583 53.5871H66.783C70.5009 53.5871 73.5148 50.5569 73.5148 46.8191V15.4008C73.5148 11.663 70.5009 8.63281 66.783 8.63281Z" fill="#011F78" stroke="black" stroke-width="0.183461"/>
<path id="Vector_2" d="M3.77769 47.4193L3.77768 42.6771L72.8401 11.9189L73.1634 13.8978V17.0308L3.77769 47.4193Z" fill="#FFCDCD" stroke="#653A2C" stroke-width="0.183461"/>
<path id="Vector_3" d="M60.0012 53.2217L37.6253 8.99268L42.6199 8.99268L69.3745 52.5002L60.0012 53.2217Z" fill="#FFCDCD" stroke="#653A2C" stroke-width="0.183461"/>
<path id="Vector_4" d="M44.3972 32.0599C44.7175 30.4263 46.1319 28.9288 46.7991 28.3843H48.8006L54.405 50.8463L42.1955 47.5791C42.7959 43.0867 44.0769 33.6935 44.3972 32.0599Z" fill="#FFCDCD"/>
<path id="Vector_5" d="M57.0071 42.6782L50.2018 28.3842C49.7346 27.6355 49.2409 26.2605 51.0024 26.7506C52.7637 27.2407 60.0094 32.264 63.4121 34.7144L57.0071 42.6782Z" fill="#FFCDCD"/>
<path id="Vector_6" d="M44.3972 32.0599C44.7175 30.4263 46.1319 28.9288 46.7991 28.3843H48.8006L54.405 50.8463L42.1955 47.5791C42.7959 43.0867 44.0769 33.6935 44.3972 32.0599Z" stroke="#653A2C" stroke-width="0.183461"/>
<path id="Vector_7" d="M57.0071 42.6782L50.2018 28.3842C49.7346 27.6355 49.2409 26.2605 51.0024 26.7506C52.7637 27.2407 60.0094 32.264 63.4121 34.7144L57.0071 42.6782Z" stroke="#653A2C" stroke-width="0.183461"/>
<path id="Vector_8" d="M64.8129 12.2524C61.2181 14.1151 52.8702 18.8549 49.4009 22.4624C48.1331 23.0751 45.2775 24.3002 43.9965 24.3002C42.3953 24.3002 38.9927 23.6876 35.7901 22.054C32.5877 20.4204 26.7831 22.4624 25.7823 22.8708C24.7816 23.2792 24.9817 24.3002 25.7823 26.3422C26.5829 28.3842 28.5845 38.39 29.7854 38.5942C30.9864 38.7984 37.5916 36.1438 39.7933 34.9187C41.995 33.6934 43.7965 28.9969 44.7972 27.9758C45.5978 27.1591 49.6677 26.9548 51.6025 26.9548C54.8051 28.18 61.7305 30.7121 63.8121 31.0388C66.4141 31.4472 70.2171 29.6094 70.6174 28.9969C70.9377 28.5067 68.0822 17.6297 66.6143 12.2524C67.6818 12.4566 65.6746 11.8059 64.8129 12.2524Z" fill="#1F89DB" stroke="#653A2C" stroke-width="0.183461"/>
<path id="Vector_9" d="M44.7973 22.8704C45.2777 22.0536 46.3318 22.53 46.7988 22.8704C46.8541 22.8329 46.9214 22.7917 46.999 22.7495C47.4845 22.4855 48.3724 22.1803 49.2008 22.462C49.8233 22.6737 50.2845 23.5441 50.6123 24.5039C50.9167 25.3956 51.1059 26.3644 51.2023 26.9544C51.4025 28.1796 49.6011 30.0174 48.4001 29.8132C48.113 29.7644 47.8375 29.6806 47.5651 29.5646C47.1288 29.7379 46.999 29.4912 46.999 29.2769C46.8541 29.1918 46.7084 29.0982 46.5608 28.9963C46.0195 28.623 45.4521 28.1396 44.7973 27.567C43.3962 26.3418 44.1968 23.8914 44.7973 22.8704Z" fill="#FFCDCD"/>
<path id="Vector_10" d="M46.999 22.7495C47.4845 22.4855 48.3724 22.1803 49.2008 22.462C49.8233 22.6737 50.2845 23.5441 50.6123 24.5039M46.999 22.7495C46.9214 22.7917 46.8541 22.8329 46.7988 22.8704C46.3318 22.53 45.2777 22.0536 44.7973 22.8704C44.1968 23.8914 43.3962 26.3418 44.7973 27.567C45.4521 28.1396 46.0195 28.623 46.5608 28.9963M46.999 22.7495C47.4407 24.4914 47.9715 28.1796 46.5608 28.9963M50.6123 24.5039C50.9167 25.3956 51.1059 26.3644 51.2023 26.9544C51.4025 28.1796 49.6011 30.0174 48.4001 29.8132C47.9135 29.7305 47.4598 29.5472 46.999 29.2769M50.6123 24.5039C50.3419 25.593 49.521 28.0162 48.4001 28.9963C47.2792 29.9765 46.999 29.5918 46.999 29.2769M46.5608 28.9963C46.7084 29.0982 46.8541 29.1918 46.999 29.2769" stroke="#653A2C" stroke-width="0.183461"/>
<path id="Vector_11" d="M50.802 24.2998C52.0696 23.2788 55.3255 21.196 58.2077 21.0326C61.09 20.8692 62.3443 20.9645 62.6112 21.0326M50.802 25.525C52.9369 25.7292 57.6073 25.9334 59.2085 25.1166M43.9966 25.525C41.7949 25.6611 37.0712 26.0967 35.7902 26.7502M35.3899 30.4258C37.5249 29.3367 42.0751 27.1994 43.196 27.3628C44.3168 27.5262 44.7305 27.4308 44.7973 27.3628" stroke="white" stroke-width="0.183461"/>
<path id="Vector_12" d="M29.7857 23.0748C29.3054 23.0748 27.0503 23.7555 25.9828 24.0959C26.3164 23.8236 27.2238 23.2382 28.1845 23.0748C29.3854 22.8707 29.3854 22.8707 30.3861 22.8707C32.788 22.6665 36.5912 23.2791 37.1916 23.4832C37.6719 23.6466 39.9271 24.3682 40.9945 24.7085C40.2606 24.6404 38.4326 24.3817 36.9915 23.8917C35.19 23.2791 30.3863 23.0748 29.7857 23.0748Z" fill="#CBEFFF"/>
<path id="Vector_13" d="M53.2036 20.4201C52.7233 20.7468 51.2688 21.6452 50.6016 22.0537C50.4682 22.0537 50.3614 21.9311 51.0019 21.4411L56.6063 17.1528C55.6723 18.1058 53.684 20.0933 53.2036 20.4201Z" fill="#CBEFFF"/>
<path id="Vector_14" d="M54.4048 23.0747C54.0846 23.4014 52.937 23.8915 52.4032 24.0957C52.2698 24.0276 52.1231 23.8507 52.6034 23.6873C53.2038 23.4831 54.8052 22.6663 54.4048 23.0747Z" fill="#D79A9A"/>
<path id="Vector_15" d="M44.7971 24.7083C44.7971 24.0549 45.3309 23.2108 45.5977 22.8705C45.1974 22.6663 45.3976 22.8705 44.7971 23.6873C44.1967 24.5041 44.7971 25.9335 44.7971 26.1377C44.7971 26.3011 45.064 26.3419 45.1974 26.3419C45.064 26.0697 44.7971 25.3617 44.7971 24.7083Z" fill="#D79A9A"/>
<path id="Vector_16" d="M45.1974 33.285C45.3976 32.264 45.7979 29.8135 45.998 29.6094C45.7979 29.6094 45.1974 31.0388 44.9972 31.8556C44.8371 32.509 44.9305 33.8975 44.9972 34.5102C45.064 34.3059 45.1974 33.775 45.1974 33.285Z" fill="#D79A9A"/>
<path id="Vector_17" d="M38.193 29.6091C38.193 29.8133 37.1917 30.222 36.9914 30.222C36.7912 30.222 36.7912 30.0177 36.9914 29.8133C37.1917 29.6091 38.193 29.4047 38.193 29.6091Z" fill="#D79A9A"/>
<path id="Vector_18" d="M37.9919 26.9543C37.1913 27.1177 36.057 27.2946 35.59 27.3627C36.3907 26.3825 38.3255 26.5459 39.1928 26.7502C39.1261 26.7502 38.7925 26.7909 37.9919 26.9543Z" fill="#D79A9A"/>
<path id="Vector_19" d="M52.0029 30.0176C51.8428 30.0176 52.8702 32.1957 53.4039 33.2848C53.4707 33.3528 53.6041 33.4073 53.6041 33.0806C53.6041 32.6722 52.203 30.0176 52.0029 30.0176Z" fill="#D79A9A"/>
<path id="Vector_20" d="M47.9997 26.9546C48.1599 26.9546 48.3333 25.8655 48.4 25.3209C48.4889 24.7084 48.1998 25.1168 47.9997 25.1168C47.7995 25.1168 47.7995 26.9546 47.9997 26.9546Z" fill="#D79A9A"/>
</g>
</g>
<defs>
<clipPath id="clip0_492_9929">
<rect width="74.6076" height="52.5922" fill="white" transform="translate(0.991074 0.873535)"/>
</clipPath>
</defs>
</svg>
