<svg width="84" height="41" viewBox="0 0 84 41" fill="none" xmlns="http://www.w3.org/2000/svg">
<g id="Group">
<path id="Vector" d="M76.5345 34.9407L40.1475 40.2486C40.0307 40.2609 39.9129 40.2609 39.796 40.2486L3.13939 37.2132C2.75905 37.1813 2.40371 37.0107 2.14095 36.7339C1.87819 36.457 1.72636 36.0933 1.71432 35.7118L0.738849 4.30855C0.731948 4.08972 0.771394 3.87191 0.854597 3.6694C0.937801 3.46688 1.06288 3.28426 1.22163 3.13348C1.38039 2.98271 1.56923 2.86721 1.77576 2.79455C1.98229 2.72188 2.20186 2.6937 2.42005 2.71186L38.7225 5.70913C38.8392 5.7241 38.9573 5.7241 39.074 5.70913L75.1203 0.455721C75.3368 0.42414 75.5575 0.43865 75.7679 0.498296C75.9784 0.557942 76.1739 0.661385 76.3417 0.801842C76.5094 0.942298 76.6455 1.1166 76.7412 1.31334C76.8369 1.51008 76.8899 1.72479 76.8968 1.94345L77.8642 33.3494C77.8775 33.7319 77.7492 34.1058 77.5038 34.3995C77.2584 34.6932 76.9132 34.8859 76.5345 34.9407Z" fill="#011F78"/>
<path id="Vector_2" d="M77.8646 33.3495L77.7884 30.8972L38.5132 29.2623L1.02274 13.6465L1.70666 35.7173C1.71869 36.0988 1.87053 36.4626 2.13329 36.7394C2.39604 37.0162 2.75139 37.1868 3.13172 37.2187L39.7884 40.2541C39.9052 40.2664 40.023 40.2664 40.1399 40.2541L76.5377 34.9462C76.9169 34.8907 77.2622 34.6969 77.5072 34.4022C77.7521 34.1074 77.8795 33.7325 77.8646 33.3495Z" fill="url(#paint0_linear_539_12229)"/>
<path id="Vector_3" d="M70.5374 20.2919L77.4638 20.5181L77.393 18.1938L70.5374 20.2919Z" fill="#7CBDF4"/>
<path id="Vector_4" d="M81.9299 18.6655L70.5376 20.3003L70.3278 15.8125L81.4149 14.2295C81.6522 14.1956 81.8939 14.2122 82.1243 14.2782C82.3547 14.3442 82.5686 14.4581 82.752 14.6124C82.9354 14.7667 83.0841 14.958 83.1885 15.1737C83.2929 15.3895 83.3505 15.6248 83.3577 15.8644L83.3904 16.9352C83.4007 17.3523 83.2578 17.7587 82.9887 18.0776C82.7195 18.3964 82.3429 18.6056 81.9299 18.6655Z" fill="#1F89DB"/>
<path id="Vector_5" d="M22.7687 5.9458L38.0548 7.42807" stroke="#1F89DB" stroke-width="0.569482" stroke-miterlimit="10" stroke-linecap="round"/>
<path id="Vector_6" d="M3.01459 4.03027L16.0446 5.29462" stroke="#1F89DB" stroke-width="0.569482" stroke-miterlimit="10" stroke-linecap="round"/>
<path id="Vector_7" d="M68.0384 2.77711L75.1065 1.69531" stroke="#1F89DB" stroke-width="0.569482" stroke-miterlimit="10" stroke-linecap="round"/>
<path id="Vector_8" d="M56.6352 4.52353L65.5316 3.16113" stroke="#1F89DB" stroke-width="0.569482" stroke-miterlimit="10" stroke-linecap="round"/>
<path id="Vector_9" d="M40.3057 7.02233L51.4392 5.31934" stroke="#1F89DB" stroke-width="0.569482" stroke-miterlimit="10" stroke-linecap="round"/>
</g>
<defs>
<linearGradient id="paint0_linear_539_12229" x1="-9.02843" y1="22.154" x2="83.2861" y2="44.3849" gradientUnits="userSpaceOnUse">
<stop stop-color="#011F78"/>
<stop offset="1" stop-color="#1F89DB"/>
</linearGradient>
</defs>
</svg>
