<svg width="67" height="77" viewBox="0 0 67 77" fill="none" xmlns="http://www.w3.org/2000/svg">
<g id="savings">
<path id="Vector" d="M26.7206 63.7117C41.478 63.7117 53.4412 51.7484 53.4412 36.9911C53.4412 22.2337 41.478 10.2705 26.7206 10.2705C11.9632 10.2705 0 22.2337 0 36.9911C0 51.7484 11.9632 63.7117 26.7206 63.7117Z" fill="#CBEFFF"/>
<path id="Vector_2" d="M21.4013 25.7275H7.67261V33.4574H21.4013V25.7275Z" fill="#B5EACA"/>
<path id="Vector_3" d="M7.67261 25.7275V33.4574H3.791V29.9429H3.89115V27.1176H3.791V25.7275H7.67261Z" fill="#8EE0B1"/>
<path id="Vector_4" d="M34.925 33.4576V22.3826C34.9253 22.3041 34.9101 22.2263 34.8803 22.1537C34.8505 22.0811 34.8067 22.0151 34.7513 21.9595C34.6959 21.9039 34.6301 21.8598 34.5576 21.8297C34.4851 21.7996 34.4074 21.7841 34.3289 21.7841H29.1693C29.0909 21.7844 29.0131 21.7693 28.9405 21.7394C28.8679 21.7096 28.8019 21.6658 28.7463 21.6104C28.6907 21.555 28.6466 21.4892 28.6165 21.4167C28.5864 21.3443 28.5709 21.2665 28.5709 21.188V18.2006C28.5709 18.0425 28.5081 17.8908 28.3963 17.7791C28.2845 17.6673 28.1329 17.6045 27.9748 17.6045H22.9487C22.7907 17.6045 22.6391 17.6673 22.5273 17.7791C22.4155 17.8908 22.3527 18.0425 22.3527 18.2006V18.9635C22.3527 19.0421 22.3372 19.1199 22.3071 19.1925C22.277 19.2651 22.233 19.3311 22.1774 19.3867C22.1218 19.4422 22.0558 19.4863 21.9832 19.5164C21.9106 19.5465 21.8328 19.562 21.7542 19.562H18.471C18.3127 19.562 18.1609 19.6247 18.0487 19.7364C17.9366 19.8481 17.8732 19.9997 17.8726 20.1581V33.4576" fill="#FFF3D5"/>
<g id="Vector_5" style="mix-blend-mode:soft-light">
<path d="M33.7234 5.12043C33.7234 5.12043 33.6685 2.88875 35.4925 1.67992C37.3165 0.471088 38.8996 1.06477 39.7031 1.44149" stroke="#FFF3D5" stroke-width="0.476857" stroke-miterlimit="10" stroke-linecap="round"/>
</g>
<g id="Vector_6" style="mix-blend-mode:soft-light">
<path d="M54.3689 15.1197C54.3692 14.8449 54.4341 14.574 54.5584 14.3288C54.6826 14.0836 54.8627 13.8711 55.0842 13.7083C55.3356 13.5342 55.63 13.4326 55.9353 13.4145C56.2405 13.3965 56.5449 13.4626 56.8151 13.6058" stroke="#FFF3D5" stroke-width="0.476857" stroke-miterlimit="10" stroke-linecap="round"/>
</g>
<path id="Vector_7" d="M49.0757 33.4575H11.2061V76.9159H49.0757V33.4575Z" fill="#133DB9"/>
<path id="Vector_8" d="M11.2061 33.4575H2.10056V76.9159H11.2061V33.4575Z" fill="#1F89DB"/>
<path id="Vector_9" d="M45.5422 37.5132H14.7396V72.8602H45.5422V37.5132Z" fill="#B8ECE9"/>
<path id="Vector_10" d="M37.8529 29.5928H32.9556C32.6606 29.5928 32.4215 29.8319 32.4215 30.1269V30.3462C32.4215 30.6412 32.6606 30.8803 32.9556 30.8803H37.8529C38.1479 30.8803 38.387 30.6412 38.387 30.3462V30.1269C38.387 29.8319 38.1479 29.5928 37.8529 29.5928Z" fill="#FFE8AC"/>
<path id="Vector_11" d="M33.0009 29.8428V30.632" stroke="#E5B20E" stroke-width="0.231276" stroke-miterlimit="10" stroke-linecap="round"/>
<path id="Vector_12" d="M33.4825 29.8428V30.632" stroke="#E5B20E" stroke-width="0.231276" stroke-miterlimit="10" stroke-linecap="round"/>
<path id="Vector_13" d="M33.9617 29.8428V30.632" stroke="#E5B20E" stroke-width="0.231276" stroke-miterlimit="10" stroke-linecap="round"/>
<path id="Vector_14" d="M34.4434 29.8428V30.632" stroke="#E5B20E" stroke-width="0.231276" stroke-miterlimit="10" stroke-linecap="round"/>
<path id="Vector_15" d="M34.925 29.8428V30.632" stroke="#E5B20E" stroke-width="0.231276" stroke-miterlimit="10" stroke-linecap="round"/>
<path id="Vector_16" d="M35.4066 29.8428V30.632" stroke="#E5B20E" stroke-width="0.231276" stroke-miterlimit="10" stroke-linecap="round"/>
<path id="Vector_17" d="M35.8859 29.8428V30.632" stroke="#E5B20E" stroke-width="0.231276" stroke-miterlimit="10" stroke-linecap="round"/>
<path id="Vector_18" d="M36.3675 29.8428V30.632" stroke="#E5B20E" stroke-width="0.231276" stroke-miterlimit="10" stroke-linecap="round"/>
<path id="Vector_19" d="M36.8491 29.8428V30.632" stroke="#E5B20E" stroke-width="0.231276" stroke-miterlimit="10" stroke-linecap="round"/>
<path id="Vector_20" d="M37.3307 29.8428V30.632" stroke="#E5B20E" stroke-width="0.231276" stroke-miterlimit="10" stroke-linecap="round"/>
<path id="Vector_21" d="M37.81 29.8428V30.632" stroke="#E5B20E" stroke-width="0.231276" stroke-miterlimit="10" stroke-linecap="round"/>
<g id="Vector_22" style="mix-blend-mode:multiply">
<path d="M32.4239 30.3174V30.5558C32.4239 30.6418 32.458 30.7243 32.5189 30.7851C32.5797 30.8459 32.6621 30.8801 32.7481 30.8801H38.0627C38.1487 30.8801 38.2312 30.8459 38.292 30.7851C38.3528 30.7243 38.387 30.6418 38.387 30.5558V29.9169C38.3893 29.8947 38.3893 29.8723 38.387 29.8501C36.9278 30.2721 33.492 30.3937 32.4239 30.3174Z" fill="#FFE8AC"/>
</g>
<path id="Vector_23" d="M37.8529 30.8823H32.9556C32.6606 30.8823 32.4215 31.1214 32.4215 31.4164V31.6357C32.4215 31.9307 32.6606 32.1698 32.9556 32.1698H37.8529C38.1479 32.1698 38.387 31.9307 38.387 31.6357V31.4164C38.387 31.1214 38.1479 30.8823 37.8529 30.8823Z" fill="#FFE8AC"/>
<path id="Vector_24" d="M33.0009 31.1304V31.9196" stroke="#E5B20E" stroke-width="0.231276" stroke-miterlimit="10" stroke-linecap="round"/>
<path id="Vector_25" d="M33.4825 31.1304V31.9196" stroke="#E5B20E" stroke-width="0.231276" stroke-miterlimit="10" stroke-linecap="round"/>
<path id="Vector_26" d="M33.9617 31.1304V31.9196" stroke="#E5B20E" stroke-width="0.231276" stroke-miterlimit="10" stroke-linecap="round"/>
<path id="Vector_27" d="M34.4434 31.1304V31.9196" stroke="#E5B20E" stroke-width="0.231276" stroke-miterlimit="10" stroke-linecap="round"/>
<path id="Vector_28" d="M34.925 31.1304V31.9196" stroke="#E5B20E" stroke-width="0.231276" stroke-miterlimit="10" stroke-linecap="round"/>
<path id="Vector_29" d="M35.4066 31.1304V31.9196" stroke="#E5B20E" stroke-width="0.231276" stroke-miterlimit="10" stroke-linecap="round"/>
<path id="Vector_30" d="M35.8859 31.1304V31.9196" stroke="#E5B20E" stroke-width="0.231276" stroke-miterlimit="10" stroke-linecap="round"/>
<path id="Vector_31" d="M36.3675 31.1304V31.9196" stroke="#E5B20E" stroke-width="0.231276" stroke-miterlimit="10" stroke-linecap="round"/>
<path id="Vector_32" d="M36.8491 31.1304V31.9196" stroke="#E5B20E" stroke-width="0.231276" stroke-miterlimit="10" stroke-linecap="round"/>
<path id="Vector_33" d="M37.3307 31.1304V31.9196" stroke="#E5B20E" stroke-width="0.231276" stroke-miterlimit="10" stroke-linecap="round"/>
<path id="Vector_34" d="M37.81 31.1304V31.9196" stroke="#E5B20E" stroke-width="0.231276" stroke-miterlimit="10" stroke-linecap="round"/>
<g id="Vector_35" style="mix-blend-mode:multiply">
<path d="M32.4239 31.6075V31.8459C32.4236 31.8887 32.4318 31.9311 32.4479 31.9707C32.4641 32.0104 32.4879 32.0464 32.518 32.0767C32.5482 32.1071 32.584 32.1312 32.6235 32.1476C32.663 32.1641 32.7054 32.1726 32.7482 32.1726H38.0627C38.1055 32.1726 38.1479 32.1641 38.1874 32.1476C38.2269 32.1312 38.2627 32.1071 38.2929 32.0767C38.323 32.0464 38.3469 32.0104 38.363 31.9707C38.3792 31.9311 38.3873 31.8887 38.387 31.8459V31.2093C38.3893 31.1863 38.3893 31.1631 38.387 31.1401C36.9278 31.5622 33.4921 31.6719 32.4239 31.6075Z" fill="#FFE8AC"/>
</g>
<path id="Vector_36" d="M37.8529 32.1699H32.9556C32.6606 32.1699 32.4215 32.409 32.4215 32.704V32.9233C32.4215 33.2183 32.6606 33.4574 32.9556 33.4574H37.8529C38.1479 33.4574 38.387 33.2183 38.387 32.9233V32.704C38.387 32.409 38.1479 32.1699 37.8529 32.1699Z" fill="#FFE8AC"/>
<path id="Vector_37" d="M33.0009 32.4175V33.209" stroke="#E5B20E" stroke-width="0.231276" stroke-miterlimit="10" stroke-linecap="round"/>
<path id="Vector_38" d="M33.4825 32.4175V33.209" stroke="#E5B20E" stroke-width="0.231276" stroke-miterlimit="10" stroke-linecap="round"/>
<path id="Vector_39" d="M33.9617 32.4175V33.209" stroke="#E5B20E" stroke-width="0.231276" stroke-miterlimit="10" stroke-linecap="round"/>
<path id="Vector_40" d="M34.4434 32.4175V33.209" stroke="#E5B20E" stroke-width="0.231276" stroke-miterlimit="10" stroke-linecap="round"/>
<path id="Vector_41" d="M34.925 32.4175V33.209" stroke="#E5B20E" stroke-width="0.231276" stroke-miterlimit="10" stroke-linecap="round"/>
<path id="Vector_42" d="M35.4066 32.4175V33.209" stroke="#E5B20E" stroke-width="0.231276" stroke-miterlimit="10" stroke-linecap="round"/>
<path id="Vector_43" d="M35.8859 32.4175V33.209" stroke="#E5B20E" stroke-width="0.231276" stroke-miterlimit="10" stroke-linecap="round"/>
<path id="Vector_44" d="M36.3675 32.4175V33.209" stroke="#E5B20E" stroke-width="0.231276" stroke-miterlimit="10" stroke-linecap="round"/>
<path id="Vector_45" d="M36.8491 32.4175V33.209" stroke="#E5B20E" stroke-width="0.231276" stroke-miterlimit="10" stroke-linecap="round"/>
<path id="Vector_46" d="M37.3307 32.4175V33.209" stroke="#E5B20E" stroke-width="0.231276" stroke-miterlimit="10" stroke-linecap="round"/>
<path id="Vector_47" d="M37.81 32.4175V33.209" stroke="#E5B20E" stroke-width="0.231276" stroke-miterlimit="10" stroke-linecap="round"/>
<g id="Vector_48" style="mix-blend-mode:multiply">
<path d="M32.4239 32.895V33.1335C32.4239 33.2195 32.458 33.302 32.5189 33.3628C32.5797 33.4236 32.6621 33.4578 32.7481 33.4578H38.0627C38.1487 33.4578 38.2312 33.4236 38.292 33.3628C38.3528 33.302 38.387 33.2195 38.387 33.1335V32.4945C38.3894 32.4723 38.3894 32.4499 38.387 32.4277C36.9278 32.8498 33.492 32.9594 32.4239 32.895Z" fill="#FFE8AC"/>
</g>
<path id="Vector_49" d="M38.0985 28.3052H33.2012C32.9062 28.3052 32.6671 28.5443 32.6671 28.8393V29.0586C32.6671 29.3536 32.9062 29.5927 33.2012 29.5927H38.0985C38.3935 29.5927 38.6326 29.3536 38.6326 29.0586V28.8393C38.6326 28.5443 38.3935 28.3052 38.0985 28.3052Z" fill="#FFE8AC"/>
<path id="Vector_50" d="M33.2441 28.5532V29.3448" stroke="#E5B20E" stroke-width="0.231276" stroke-miterlimit="10" stroke-linecap="round"/>
<path id="Vector_51" d="M33.7257 28.5532V29.3448" stroke="#E5B20E" stroke-width="0.231276" stroke-miterlimit="10" stroke-linecap="round"/>
<path id="Vector_52" d="M34.2073 28.5532V29.3448" stroke="#E5B20E" stroke-width="0.231276" stroke-miterlimit="10" stroke-linecap="round"/>
<path id="Vector_53" d="M34.689 28.5532V29.3448" stroke="#E5B20E" stroke-width="0.231276" stroke-miterlimit="10" stroke-linecap="round"/>
<path id="Vector_54" d="M35.1682 28.5532V29.3448" stroke="#E5B20E" stroke-width="0.231276" stroke-miterlimit="10" stroke-linecap="round"/>
<path id="Vector_55" d="M35.6498 28.5532V29.3448" stroke="#E5B20E" stroke-width="0.231276" stroke-miterlimit="10" stroke-linecap="round"/>
<path id="Vector_56" d="M36.1315 28.5532V29.3448" stroke="#E5B20E" stroke-width="0.231276" stroke-miterlimit="10" stroke-linecap="round"/>
<path id="Vector_57" d="M36.6131 28.5532V29.3448" stroke="#E5B20E" stroke-width="0.231276" stroke-miterlimit="10" stroke-linecap="round"/>
<path id="Vector_58" d="M37.0923 28.5532V29.3448" stroke="#E5B20E" stroke-width="0.231276" stroke-miterlimit="10" stroke-linecap="round"/>
<path id="Vector_59" d="M37.5739 28.5532V29.3448" stroke="#E5B20E" stroke-width="0.231276" stroke-miterlimit="10" stroke-linecap="round"/>
<path id="Vector_60" d="M38.0556 28.5532V29.3448" stroke="#E5B20E" stroke-width="0.231276" stroke-miterlimit="10" stroke-linecap="round"/>
<g id="Vector_61" style="mix-blend-mode:multiply">
<path d="M32.6671 29.0298V29.2682C32.6671 29.311 32.6756 29.3534 32.692 29.3929C32.7084 29.4324 32.7325 29.4682 32.7629 29.4983C32.7933 29.5285 32.8293 29.5523 32.8689 29.5685C32.9085 29.5846 32.9509 29.5928 32.9937 29.5925H38.3011C38.3871 29.5925 38.4696 29.5583 38.5304 29.4975C38.5913 29.4367 38.6254 29.3542 38.6254 29.2682V28.6293C38.6279 28.6071 38.6279 28.5847 38.6254 28.5625C37.171 28.9845 33.7376 29.0942 32.6671 29.0298Z" fill="#FFE8AC"/>
</g>
<path id="Vector_62" d="M37.6169 27.0151H32.7195C32.4246 27.0151 32.1855 27.2543 32.1855 27.5492V27.7686C32.1855 28.0636 32.4246 28.3027 32.7195 28.3027H37.6169C37.9118 28.3027 38.1509 28.0636 38.1509 27.7686V27.5492C38.1509 27.2543 37.9118 27.0151 37.6169 27.0151Z" fill="#FFE8AC"/>
<path id="Vector_63" d="M32.7648 27.2656V28.0548" stroke="#E5B20E" stroke-width="0.231276" stroke-miterlimit="10" stroke-linecap="round"/>
<path id="Vector_64" d="M33.2441 27.2656V28.0548" stroke="#E5B20E" stroke-width="0.231276" stroke-miterlimit="10" stroke-linecap="round"/>
<path id="Vector_65" d="M33.7257 27.2656V28.0548" stroke="#E5B20E" stroke-width="0.231276" stroke-miterlimit="10" stroke-linecap="round"/>
<path id="Vector_66" d="M34.2073 27.2656V28.0548" stroke="#E5B20E" stroke-width="0.231276" stroke-miterlimit="10" stroke-linecap="round"/>
<path id="Vector_67" d="M34.689 27.2656V28.0548" stroke="#E5B20E" stroke-width="0.231276" stroke-miterlimit="10" stroke-linecap="round"/>
<path id="Vector_68" d="M35.1682 27.2656V28.0548" stroke="#E5B20E" stroke-width="0.231276" stroke-miterlimit="10" stroke-linecap="round"/>
<path id="Vector_69" d="M35.6498 27.2656V28.0548" stroke="#E5B20E" stroke-width="0.231276" stroke-miterlimit="10" stroke-linecap="round"/>
<path id="Vector_70" d="M36.1315 27.2656V28.0548" stroke="#E5B20E" stroke-width="0.231276" stroke-miterlimit="10" stroke-linecap="round"/>
<path id="Vector_71" d="M36.6131 27.2656V28.0548" stroke="#E5B20E" stroke-width="0.231276" stroke-miterlimit="10" stroke-linecap="round"/>
<path id="Vector_72" d="M37.0923 27.2656V28.0548" stroke="#E5B20E" stroke-width="0.231276" stroke-miterlimit="10" stroke-linecap="round"/>
<path id="Vector_73" d="M37.5739 27.2656V28.0548" stroke="#E5B20E" stroke-width="0.231276" stroke-miterlimit="10" stroke-linecap="round"/>
<g id="Vector_74" style="mix-blend-mode:multiply">
<path d="M32.1855 27.7422V27.9806C32.1855 28.0673 32.2199 28.1504 32.2811 28.2116C32.3424 28.2729 32.4255 28.3073 32.5121 28.3073H37.8243C37.9109 28.3073 37.994 28.2729 38.0553 28.2116C38.1165 28.1504 38.1509 28.0673 38.1509 27.9806V27.3417C38.1533 27.3195 38.1533 27.2971 38.1509 27.2749C36.6894 27.6945 33.256 27.8042 32.1855 27.7422Z" fill="#FFE8AC"/>
</g>
<path id="Vector_75" d="M38.0985 25.7275H33.2012C32.9062 25.7275 32.6671 25.9667 32.6671 26.2616V26.481C32.6671 26.7759 32.9062 27.015 33.2012 27.015H38.0985C38.3935 27.015 38.6326 26.7759 38.6326 26.481V26.2616C38.6326 25.9667 38.3935 25.7275 38.0985 25.7275Z" fill="#FFE8AC"/>
<path id="Vector_76" d="M33.2441 25.9756V26.7672" stroke="#E5B20E" stroke-width="0.231276" stroke-miterlimit="10" stroke-linecap="round"/>
<path id="Vector_77" d="M33.7257 25.9756V26.7672" stroke="#E5B20E" stroke-width="0.231276" stroke-miterlimit="10" stroke-linecap="round"/>
<path id="Vector_78" d="M34.2073 25.9756V26.7672" stroke="#E5B20E" stroke-width="0.231276" stroke-miterlimit="10" stroke-linecap="round"/>
<path id="Vector_79" d="M34.689 25.9756V26.7672" stroke="#E5B20E" stroke-width="0.231276" stroke-miterlimit="10" stroke-linecap="round"/>
<path id="Vector_80" d="M35.1682 25.9756V26.7672" stroke="#E5B20E" stroke-width="0.231276" stroke-miterlimit="10" stroke-linecap="round"/>
<path id="Vector_81" d="M35.6498 25.9756V26.7672" stroke="#E5B20E" stroke-width="0.231276" stroke-miterlimit="10" stroke-linecap="round"/>
<path id="Vector_82" d="M36.1315 25.9756V26.7672" stroke="#E5B20E" stroke-width="0.231276" stroke-miterlimit="10" stroke-linecap="round"/>
<path id="Vector_83" d="M36.6131 25.9756V26.7672" stroke="#E5B20E" stroke-width="0.231276" stroke-miterlimit="10" stroke-linecap="round"/>
<path id="Vector_84" d="M37.0923 25.9756V26.7672" stroke="#E5B20E" stroke-width="0.231276" stroke-miterlimit="10" stroke-linecap="round"/>
<path id="Vector_85" d="M37.5739 25.9756V26.7672" stroke="#E5B20E" stroke-width="0.231276" stroke-miterlimit="10" stroke-linecap="round"/>
<path id="Vector_86" d="M38.0556 25.9756V26.7672" stroke="#E5B20E" stroke-width="0.231276" stroke-miterlimit="10" stroke-linecap="round"/>
<g id="Vector_87" style="mix-blend-mode:multiply">
<path d="M32.6671 26.4527V26.6911C32.6671 26.7339 32.6756 26.7762 32.692 26.8157C32.7084 26.8552 32.7325 26.8911 32.7629 26.9213C32.7933 26.9514 32.8293 26.9752 32.8689 26.9913C32.9085 27.0075 32.9509 27.0157 32.9937 27.0154H38.3011C38.3871 27.0154 38.4696 26.9812 38.5304 26.9204C38.5913 26.8596 38.6254 26.7771 38.6254 26.6911V26.0521C38.6279 26.0299 38.6279 26.0075 38.6254 25.9854C37.171 26.4074 33.7376 26.517 32.6671 26.4527Z" fill="#FFE8AC"/>
</g>
<path id="Vector_88" d="M37.8529 24.4399H32.9556C32.6606 24.4399 32.4215 24.6791 32.4215 24.974V25.1934C32.4215 25.4883 32.6606 25.7274 32.9556 25.7274H37.8529C38.1479 25.7274 38.387 25.4883 38.387 25.1934V24.974C38.387 24.6791 38.1479 24.4399 37.8529 24.4399Z" fill="#FFE8AC"/>
<path id="Vector_89" d="M33.0009 24.688V25.4772" stroke="#E5B20E" stroke-width="0.231276" stroke-miterlimit="10" stroke-linecap="round"/>
<path id="Vector_90" d="M33.4825 24.688V25.4772" stroke="#E5B20E" stroke-width="0.231276" stroke-miterlimit="10" stroke-linecap="round"/>
<path id="Vector_91" d="M33.9617 24.688V25.4772" stroke="#E5B20E" stroke-width="0.231276" stroke-miterlimit="10" stroke-linecap="round"/>
<path id="Vector_92" d="M34.4434 24.688V25.4772" stroke="#E5B20E" stroke-width="0.231276" stroke-miterlimit="10" stroke-linecap="round"/>
<path id="Vector_93" d="M34.925 24.688V25.4772" stroke="#E5B20E" stroke-width="0.231276" stroke-miterlimit="10" stroke-linecap="round"/>
<path id="Vector_94" d="M35.4066 24.688V25.4772" stroke="#E5B20E" stroke-width="0.231276" stroke-miterlimit="10" stroke-linecap="round"/>
<path id="Vector_95" d="M35.8859 24.688V25.4772" stroke="#E5B20E" stroke-width="0.231276" stroke-miterlimit="10" stroke-linecap="round"/>
<path id="Vector_96" d="M36.3675 24.688V25.4772" stroke="#E5B20E" stroke-width="0.231276" stroke-miterlimit="10" stroke-linecap="round"/>
<path id="Vector_97" d="M36.8491 24.688V25.4772" stroke="#E5B20E" stroke-width="0.231276" stroke-miterlimit="10" stroke-linecap="round"/>
<path id="Vector_98" d="M37.3307 24.688V25.4772" stroke="#E5B20E" stroke-width="0.231276" stroke-miterlimit="10" stroke-linecap="round"/>
<path id="Vector_99" d="M37.81 24.688V25.4772" stroke="#E5B20E" stroke-width="0.231276" stroke-miterlimit="10" stroke-linecap="round"/>
<g id="Vector_100" style="mix-blend-mode:multiply">
<path d="M32.4239 25.1651V25.4035C32.4236 25.4463 32.4318 25.4887 32.4479 25.5283C32.4641 25.5679 32.4879 25.6039 32.518 25.6343C32.5482 25.6647 32.584 25.6888 32.6235 25.7052C32.663 25.7216 32.7054 25.7301 32.7482 25.7301H38.0627C38.1055 25.7301 38.1479 25.7216 38.1874 25.7052C38.2269 25.6888 38.2627 25.6647 38.2929 25.6343C38.323 25.6039 38.3469 25.5679 38.363 25.5283C38.3792 25.4887 38.3873 25.4463 38.387 25.4035V24.7668C38.3893 24.7439 38.3893 24.7207 38.387 24.6978C36.9278 25.1198 33.4921 25.2294 32.4239 25.1651Z" fill="#FFE8AC"/>
</g>
<path id="Vector_101" d="M30.0563 29.5928H25.159C24.864 29.5928 24.6249 29.8319 24.6249 30.1269V30.3462C24.6249 30.6412 24.864 30.8803 25.159 30.8803H30.0563C30.3512 30.8803 30.5903 30.6412 30.5903 30.3462V30.1269C30.5903 29.8319 30.3512 29.5928 30.0563 29.5928Z" fill="#FFE8AC"/>
<path id="Vector_102" d="M25.2043 29.8428V30.632" stroke="#E5B20E" stroke-width="0.231276" stroke-miterlimit="10" stroke-linecap="round"/>
<path id="Vector_103" d="M25.6835 29.8428V30.632" stroke="#E5B20E" stroke-width="0.231276" stroke-miterlimit="10" stroke-linecap="round"/>
<path id="Vector_104" d="M26.1651 29.8428V30.632" stroke="#E5B20E" stroke-width="0.231276" stroke-miterlimit="10" stroke-linecap="round"/>
<path id="Vector_105" d="M26.6468 29.8428V30.632" stroke="#E5B20E" stroke-width="0.231276" stroke-miterlimit="10" stroke-linecap="round"/>
<path id="Vector_106" d="M27.1284 29.8428V30.632" stroke="#E5B20E" stroke-width="0.231276" stroke-miterlimit="10" stroke-linecap="round"/>
<path id="Vector_107" d="M27.6076 29.8428V30.632" stroke="#E5B20E" stroke-width="0.231276" stroke-miterlimit="10" stroke-linecap="round"/>
<path id="Vector_108" d="M28.0892 29.8428V30.632" stroke="#E5B20E" stroke-width="0.231276" stroke-miterlimit="10" stroke-linecap="round"/>
<path id="Vector_109" d="M28.5709 29.8428V30.632" stroke="#E5B20E" stroke-width="0.231276" stroke-miterlimit="10" stroke-linecap="round"/>
<path id="Vector_110" d="M29.0525 29.8428V30.632" stroke="#E5B20E" stroke-width="0.231276" stroke-miterlimit="10" stroke-linecap="round"/>
<path id="Vector_111" d="M29.5317 29.8428V30.632" stroke="#E5B20E" stroke-width="0.231276" stroke-miterlimit="10" stroke-linecap="round"/>
<path id="Vector_112" d="M30.0134 29.8428V30.632" stroke="#E5B20E" stroke-width="0.231276" stroke-miterlimit="10" stroke-linecap="round"/>
<g id="Vector_113" style="mix-blend-mode:multiply">
<path d="M24.6273 30.3174V30.5558C24.6298 30.6398 24.6647 30.7195 24.7247 30.7782C24.7847 30.8369 24.8652 30.87 24.9492 30.8706H30.2637C30.3065 30.8709 30.3489 30.8628 30.3885 30.8466C30.4282 30.8304 30.4642 30.8066 30.4946 30.7765C30.5249 30.7463 30.549 30.7105 30.5655 30.671C30.5819 30.6315 30.5904 30.5891 30.5904 30.5463V29.9169C30.5927 29.8947 30.5927 29.8723 30.5904 29.8501C29.1288 30.2721 25.6954 30.3937 24.6273 30.3174Z" fill="#FFE8AC"/>
</g>
<path id="Vector_114" d="M30.0563 30.8823H25.159C24.864 30.8823 24.6249 31.1214 24.6249 31.4164V31.6357C24.6249 31.9307 24.864 32.1698 25.159 32.1698H30.0563C30.3512 32.1698 30.5903 31.9307 30.5903 31.6357V31.4164C30.5903 31.1214 30.3512 30.8823 30.0563 30.8823Z" fill="#FFE8AC"/>
<path id="Vector_115" d="M25.2043 31.1304V31.9196" stroke="#E5B20E" stroke-width="0.231276" stroke-miterlimit="10" stroke-linecap="round"/>
<path id="Vector_116" d="M25.6835 31.1304V31.9196" stroke="#E5B20E" stroke-width="0.231276" stroke-miterlimit="10" stroke-linecap="round"/>
<path id="Vector_117" d="M26.1651 31.1304V31.9196" stroke="#E5B20E" stroke-width="0.231276" stroke-miterlimit="10" stroke-linecap="round"/>
<path id="Vector_118" d="M26.6468 31.1304V31.9196" stroke="#E5B20E" stroke-width="0.231276" stroke-miterlimit="10" stroke-linecap="round"/>
<path id="Vector_119" d="M27.1284 31.1304V31.9196" stroke="#E5B20E" stroke-width="0.231276" stroke-miterlimit="10" stroke-linecap="round"/>
<path id="Vector_120" d="M27.6076 31.1304V31.9196" stroke="#E5B20E" stroke-width="0.231276" stroke-miterlimit="10" stroke-linecap="round"/>
<path id="Vector_121" d="M28.0892 31.1304V31.9196" stroke="#E5B20E" stroke-width="0.231276" stroke-miterlimit="10" stroke-linecap="round"/>
<path id="Vector_122" d="M28.5709 31.1304V31.9196" stroke="#E5B20E" stroke-width="0.231276" stroke-miterlimit="10" stroke-linecap="round"/>
<path id="Vector_123" d="M29.0525 31.1304V31.9196" stroke="#E5B20E" stroke-width="0.231276" stroke-miterlimit="10" stroke-linecap="round"/>
<path id="Vector_124" d="M29.5317 31.1304V31.9196" stroke="#E5B20E" stroke-width="0.231276" stroke-miterlimit="10" stroke-linecap="round"/>
<path id="Vector_125" d="M30.0134 31.1304V31.9196" stroke="#E5B20E" stroke-width="0.231276" stroke-miterlimit="10" stroke-linecap="round"/>
<g id="Vector_126" style="mix-blend-mode:multiply">
<path d="M24.6273 31.6075V31.8459C24.627 31.8887 24.6351 31.9311 24.6513 31.9707C24.6674 32.0104 24.6913 32.0464 24.7214 32.0767C24.7516 32.1071 24.7874 32.1312 24.8269 32.1476C24.8664 32.1641 24.9088 32.1726 24.9516 32.1726H30.2661C30.3528 32.1726 30.4358 32.1382 30.4971 32.0769C30.5583 32.0157 30.5928 31.9326 30.5928 31.8459V31.2093C30.5951 31.1863 30.5951 31.1631 30.5928 31.1401C29.1288 31.5622 25.6955 31.6719 24.6273 31.6075Z" fill="#FFE8AC"/>
</g>
<path id="Vector_127" d="M30.0563 32.1699H25.159C24.864 32.1699 24.6249 32.409 24.6249 32.704V32.9233C24.6249 33.2183 24.864 33.4574 25.159 33.4574H30.0563C30.3512 33.4574 30.5903 33.2183 30.5903 32.9233V32.704C30.5903 32.409 30.3512 32.1699 30.0563 32.1699Z" fill="#FFE8AC"/>
<path id="Vector_128" d="M25.2043 32.4175V33.209" stroke="#E5B20E" stroke-width="0.231276" stroke-miterlimit="10" stroke-linecap="round"/>
<path id="Vector_129" d="M25.6835 32.4175V33.209" stroke="#E5B20E" stroke-width="0.231276" stroke-miterlimit="10" stroke-linecap="round"/>
<path id="Vector_130" d="M26.1651 32.4175V33.209" stroke="#E5B20E" stroke-width="0.231276" stroke-miterlimit="10" stroke-linecap="round"/>
<path id="Vector_131" d="M26.6468 32.4175V33.209" stroke="#E5B20E" stroke-width="0.231276" stroke-miterlimit="10" stroke-linecap="round"/>
<path id="Vector_132" d="M27.1284 32.4175V33.209" stroke="#E5B20E" stroke-width="0.231276" stroke-miterlimit="10" stroke-linecap="round"/>
<path id="Vector_133" d="M27.6076 32.4175V33.209" stroke="#E5B20E" stroke-width="0.231276" stroke-miterlimit="10" stroke-linecap="round"/>
<path id="Vector_134" d="M28.0892 32.4175V33.209" stroke="#E5B20E" stroke-width="0.231276" stroke-miterlimit="10" stroke-linecap="round"/>
<path id="Vector_135" d="M28.5709 32.4175V33.209" stroke="#E5B20E" stroke-width="0.231276" stroke-miterlimit="10" stroke-linecap="round"/>
<path id="Vector_136" d="M29.0525 32.4175V33.209" stroke="#E5B20E" stroke-width="0.231276" stroke-miterlimit="10" stroke-linecap="round"/>
<path id="Vector_137" d="M29.5317 32.4175V33.209" stroke="#E5B20E" stroke-width="0.231276" stroke-miterlimit="10" stroke-linecap="round"/>
<path id="Vector_138" d="M30.0134 32.4175V33.209" stroke="#E5B20E" stroke-width="0.231276" stroke-miterlimit="10" stroke-linecap="round"/>
<g id="Vector_139" style="mix-blend-mode:multiply">
<path d="M24.6273 32.895V33.1335C24.6273 33.2195 24.6614 33.302 24.7223 33.3628C24.7831 33.4236 24.8655 33.4578 24.9515 33.4578H30.2661C30.3089 33.4581 30.3513 33.4499 30.3909 33.4337C30.4305 33.4176 30.4666 33.3938 30.497 33.3636C30.5273 33.3335 30.5514 33.2976 30.5679 33.2581C30.5843 33.2186 30.5928 33.1763 30.5928 33.1335V32.4945C30.5952 32.4723 30.5952 32.4499 30.5928 32.4277C29.1288 32.8498 25.6954 32.9594 24.6273 32.895Z" fill="#FFE8AC"/>
</g>
<path id="Vector_140" d="M30.3019 28.3052H25.4045C25.1096 28.3052 24.8705 28.5443 24.8705 28.8393V29.0586C24.8705 29.3536 25.1096 29.5927 25.4045 29.5927H30.3019C30.5968 29.5927 30.8359 29.3536 30.8359 29.0586V28.8393C30.8359 28.5443 30.5968 28.3052 30.3019 28.3052Z" fill="#FFE8AC"/>
<path id="Vector_141" d="M25.4475 28.5532V29.3448" stroke="#E5B20E" stroke-width="0.231276" stroke-miterlimit="10" stroke-linecap="round"/>
<path id="Vector_142" d="M25.9291 28.5532V29.3448" stroke="#E5B20E" stroke-width="0.231276" stroke-miterlimit="10" stroke-linecap="round"/>
<path id="Vector_143" d="M26.4107 28.5532V29.3448" stroke="#E5B20E" stroke-width="0.231276" stroke-miterlimit="10" stroke-linecap="round"/>
<path id="Vector_144" d="M26.89 28.5532V29.3448" stroke="#E5B20E" stroke-width="0.231276" stroke-miterlimit="10" stroke-linecap="round"/>
<path id="Vector_145" d="M27.3716 28.5532V29.3448" stroke="#E5B20E" stroke-width="0.231276" stroke-miterlimit="10" stroke-linecap="round"/>
<path id="Vector_146" d="M27.8532 28.5532V29.3448" stroke="#E5B20E" stroke-width="0.231276" stroke-miterlimit="10" stroke-linecap="round"/>
<path id="Vector_147" d="M28.3348 28.5532V29.3448" stroke="#E5B20E" stroke-width="0.231276" stroke-miterlimit="10" stroke-linecap="round"/>
<path id="Vector_148" d="M28.8141 28.5532V29.3448" stroke="#E5B20E" stroke-width="0.231276" stroke-miterlimit="10" stroke-linecap="round"/>
<path id="Vector_149" d="M29.2957 28.5532V29.3448" stroke="#E5B20E" stroke-width="0.231276" stroke-miterlimit="10" stroke-linecap="round"/>
<path id="Vector_150" d="M29.7773 28.5532V29.3448" stroke="#E5B20E" stroke-width="0.231276" stroke-miterlimit="10" stroke-linecap="round"/>
<path id="Vector_151" d="M30.259 28.5532V29.3448" stroke="#E5B20E" stroke-width="0.231276" stroke-miterlimit="10" stroke-linecap="round"/>
<g id="Vector_152" style="mix-blend-mode:multiply">
<path d="M24.8705 29.0298V29.2682C24.8705 29.3542 24.9047 29.4367 24.9655 29.4975C25.0263 29.5583 25.1088 29.5925 25.1948 29.5925H30.5117C30.5977 29.5925 30.6802 29.5583 30.741 29.4975C30.8018 29.4367 30.836 29.3542 30.836 29.2682V28.6293C30.8384 28.6071 30.8384 28.5847 30.836 28.5625C29.3744 28.9845 25.941 29.0942 24.8705 29.0298Z" fill="#FFE8AC"/>
</g>
<path id="Vector_153" d="M29.8202 27.0151H24.9229C24.628 27.0151 24.3889 27.2543 24.3889 27.5492V27.7686C24.3889 28.0636 24.628 28.3027 24.9229 28.3027H29.8202C30.1152 28.3027 30.3543 28.0636 30.3543 27.7686V27.5492C30.3543 27.2543 30.1152 27.0151 29.8202 27.0151Z" fill="#FFE8AC"/>
<path id="Vector_154" d="M24.9658 27.2656V28.0548" stroke="#E5B20E" stroke-width="0.231276" stroke-miterlimit="10" stroke-linecap="round"/>
<path id="Vector_155" d="M25.4475 27.2656V28.0548" stroke="#E5B20E" stroke-width="0.231276" stroke-miterlimit="10" stroke-linecap="round"/>
<path id="Vector_156" d="M25.9291 27.2656V28.0548" stroke="#E5B20E" stroke-width="0.231276" stroke-miterlimit="10" stroke-linecap="round"/>
<path id="Vector_157" d="M26.4107 27.2656V28.0548" stroke="#E5B20E" stroke-width="0.231276" stroke-miterlimit="10" stroke-linecap="round"/>
<path id="Vector_158" d="M26.89 27.2656V28.0548" stroke="#E5B20E" stroke-width="0.231276" stroke-miterlimit="10" stroke-linecap="round"/>
<path id="Vector_159" d="M27.3716 27.2656V28.0548" stroke="#E5B20E" stroke-width="0.231276" stroke-miterlimit="10" stroke-linecap="round"/>
<path id="Vector_160" d="M27.8532 27.2656V28.0548" stroke="#E5B20E" stroke-width="0.231276" stroke-miterlimit="10" stroke-linecap="round"/>
<path id="Vector_161" d="M28.3348 27.2656V28.0548" stroke="#E5B20E" stroke-width="0.231276" stroke-miterlimit="10" stroke-linecap="round"/>
<path id="Vector_162" d="M28.8141 27.2656V28.0548" stroke="#E5B20E" stroke-width="0.231276" stroke-miterlimit="10" stroke-linecap="round"/>
<path id="Vector_163" d="M29.2957 27.2656V28.0548" stroke="#E5B20E" stroke-width="0.231276" stroke-miterlimit="10" stroke-linecap="round"/>
<path id="Vector_164" d="M29.7773 27.2656V28.0548" stroke="#E5B20E" stroke-width="0.231276" stroke-miterlimit="10" stroke-linecap="round"/>
<g id="Vector_165" style="mix-blend-mode:multiply">
<path d="M24.3889 27.7422V27.9806C24.3889 28.0673 24.4233 28.1504 24.4845 28.2116C24.5458 28.2729 24.6289 28.3073 24.7155 28.3073H30.0301C30.1167 28.3073 30.1998 28.2729 30.261 28.2116C30.3223 28.1504 30.3567 28.0673 30.3567 27.9806V27.3417C30.359 27.3195 30.359 27.2971 30.3567 27.2749C28.8928 27.6945 25.4594 27.8042 24.3889 27.7422Z" fill="#FFE8AC"/>
</g>
<path id="Vector_166" d="M30.3019 25.7275H25.4045C25.1096 25.7275 24.8705 25.9667 24.8705 26.2616V26.481C24.8705 26.7759 25.1096 27.015 25.4045 27.015H30.3019C30.5968 27.015 30.8359 26.7759 30.8359 26.481V26.2616C30.8359 25.9667 30.5968 25.7275 30.3019 25.7275Z" fill="#FFE8AC"/>
<path id="Vector_167" d="M25.4475 25.9756V26.7672" stroke="#E5B20E" stroke-width="0.231276" stroke-miterlimit="10" stroke-linecap="round"/>
<path id="Vector_168" d="M25.9291 25.9756V26.7672" stroke="#E5B20E" stroke-width="0.231276" stroke-miterlimit="10" stroke-linecap="round"/>
<path id="Vector_169" d="M26.4107 25.9756V26.7672" stroke="#E5B20E" stroke-width="0.231276" stroke-miterlimit="10" stroke-linecap="round"/>
<path id="Vector_170" d="M26.89 25.9756V26.7672" stroke="#E5B20E" stroke-width="0.231276" stroke-miterlimit="10" stroke-linecap="round"/>
<path id="Vector_171" d="M27.3716 25.9756V26.7672" stroke="#E5B20E" stroke-width="0.231276" stroke-miterlimit="10" stroke-linecap="round"/>
<path id="Vector_172" d="M27.8532 25.9756V26.7672" stroke="#E5B20E" stroke-width="0.231276" stroke-miterlimit="10" stroke-linecap="round"/>
<path id="Vector_173" d="M28.3348 25.9756V26.7672" stroke="#E5B20E" stroke-width="0.231276" stroke-miterlimit="10" stroke-linecap="round"/>
<path id="Vector_174" d="M28.8141 25.9756V26.7672" stroke="#E5B20E" stroke-width="0.231276" stroke-miterlimit="10" stroke-linecap="round"/>
<path id="Vector_175" d="M29.2957 25.9756V26.7672" stroke="#E5B20E" stroke-width="0.231276" stroke-miterlimit="10" stroke-linecap="round"/>
<path id="Vector_176" d="M29.7773 25.9756V26.7672" stroke="#E5B20E" stroke-width="0.231276" stroke-miterlimit="10" stroke-linecap="round"/>
<path id="Vector_177" d="M30.259 25.9756V26.7672" stroke="#E5B20E" stroke-width="0.231276" stroke-miterlimit="10" stroke-linecap="round"/>
<g id="Vector_178" style="mix-blend-mode:multiply">
<path d="M24.8705 26.4527V26.6911C24.8705 26.7771 24.9047 26.8596 24.9655 26.9204C25.0263 26.9812 25.1088 27.0154 25.1948 27.0154H30.5117C30.5977 27.0154 30.6802 26.9812 30.741 26.9204C30.8018 26.8596 30.836 26.7771 30.836 26.6911V26.0521C30.8384 26.0299 30.8384 26.0075 30.836 25.9854C29.3744 26.4074 25.941 26.517 24.8705 26.4527Z" fill="#FFE8AC"/>
</g>
<path id="Vector_179" d="M30.0563 24.4399H25.159C24.864 24.4399 24.6249 24.6791 24.6249 24.974V25.1934C24.6249 25.4883 24.864 25.7274 25.159 25.7274H30.0563C30.3512 25.7274 30.5903 25.4883 30.5903 25.1934V24.974C30.5903 24.6791 30.3512 24.4399 30.0563 24.4399Z" fill="#FFE8AC"/>
<path id="Vector_180" d="M25.2043 24.688V25.4772" stroke="#E5B20E" stroke-width="0.231276" stroke-miterlimit="10" stroke-linecap="round"/>
<path id="Vector_181" d="M25.6835 24.688V25.4772" stroke="#E5B20E" stroke-width="0.231276" stroke-miterlimit="10" stroke-linecap="round"/>
<path id="Vector_182" d="M26.1651 24.688V25.4772" stroke="#E5B20E" stroke-width="0.231276" stroke-miterlimit="10" stroke-linecap="round"/>
<path id="Vector_183" d="M26.6468 24.688V25.4772" stroke="#E5B20E" stroke-width="0.231276" stroke-miterlimit="10" stroke-linecap="round"/>
<path id="Vector_184" d="M27.1284 24.688V25.4772" stroke="#E5B20E" stroke-width="0.231276" stroke-miterlimit="10" stroke-linecap="round"/>
<path id="Vector_185" d="M27.6076 24.688V25.4772" stroke="#E5B20E" stroke-width="0.231276" stroke-miterlimit="10" stroke-linecap="round"/>
<path id="Vector_186" d="M28.0892 24.688V25.4772" stroke="#E5B20E" stroke-width="0.231276" stroke-miterlimit="10" stroke-linecap="round"/>
<path id="Vector_187" d="M28.5709 24.688V25.4772" stroke="#E5B20E" stroke-width="0.231276" stroke-miterlimit="10" stroke-linecap="round"/>
<path id="Vector_188" d="M29.0525 24.688V25.4772" stroke="#E5B20E" stroke-width="0.231276" stroke-miterlimit="10" stroke-linecap="round"/>
<path id="Vector_189" d="M29.5317 24.688V25.4772" stroke="#E5B20E" stroke-width="0.231276" stroke-miterlimit="10" stroke-linecap="round"/>
<path id="Vector_190" d="M30.0134 24.688V25.4772" stroke="#E5B20E" stroke-width="0.231276" stroke-miterlimit="10" stroke-linecap="round"/>
<g id="Vector_191" style="mix-blend-mode:multiply">
<path d="M24.6273 25.1651V25.4035C24.627 25.4463 24.6351 25.4887 24.6513 25.5283C24.6674 25.5679 24.6913 25.6039 24.7214 25.6343C24.7516 25.6647 24.7874 25.6888 24.8269 25.7052C24.8664 25.7216 24.9088 25.7301 24.9516 25.7301H30.2661C30.3528 25.7301 30.4358 25.6957 30.4971 25.6345C30.5583 25.5732 30.5928 25.4901 30.5928 25.4035V24.7668C30.5951 24.7439 30.5951 24.7207 30.5928 24.6978C29.1288 25.1198 25.6955 25.2294 24.6273 25.1651Z" fill="#FFE8AC"/>
</g>
<path id="Vector_192" d="M30.1398 61.914C33.8545 61.914 36.8658 58.9027 36.8658 55.188C36.8658 51.4733 33.8545 48.4619 30.1398 48.4619C26.425 48.4619 23.4137 51.4733 23.4137 55.188C23.4137 58.9027 26.425 61.914 30.1398 61.914Z" fill="#9FA1AF"/>
<path id="Vector_193" d="M30.1398 59.0265C32.2598 59.0265 33.9785 57.3079 33.9785 55.1878C33.9785 53.0678 32.2598 51.3491 30.1398 51.3491C28.0197 51.3491 26.301 53.0678 26.301 55.1878C26.301 57.3079 28.0197 59.0265 30.1398 59.0265Z" fill="#CDCFD6"/>
<path id="Vector_194" d="M42.5237 32.2725H37.6264C37.3314 32.2725 37.0923 32.5116 37.0923 32.8065V33.0259C37.0923 33.3209 37.3314 33.56 37.6264 33.56H42.5237C42.8187 33.56 43.0578 33.3209 43.0578 33.0259V32.8065C43.0578 32.5116 42.8187 32.2725 42.5237 32.2725Z" fill="#FFDE82"/>
<path id="Vector_195" d="M37.6717 32.5205V33.3097" stroke="#E5B20E" stroke-width="0.231276" stroke-miterlimit="10" stroke-linecap="round"/>
<path id="Vector_196" d="M38.1509 32.5205V33.3097" stroke="#E5B20E" stroke-width="0.231276" stroke-miterlimit="10" stroke-linecap="round"/>
<path id="Vector_197" d="M38.6326 32.5205V33.3097" stroke="#E5B20E" stroke-width="0.231276" stroke-miterlimit="10" stroke-linecap="round"/>
<path id="Vector_198" d="M39.1142 32.5205V33.3097" stroke="#E5B20E" stroke-width="0.231276" stroke-miterlimit="10" stroke-linecap="round"/>
<path id="Vector_199" d="M39.5958 32.5205V33.3097" stroke="#E5B20E" stroke-width="0.231276" stroke-miterlimit="10" stroke-linecap="round"/>
<path id="Vector_200" d="M40.075 32.5205V33.3097" stroke="#E5B20E" stroke-width="0.231276" stroke-miterlimit="10" stroke-linecap="round"/>
<path id="Vector_201" d="M40.5567 32.5205V33.3097" stroke="#E5B20E" stroke-width="0.231276" stroke-miterlimit="10" stroke-linecap="round"/>
<path id="Vector_202" d="M41.0383 32.5205V33.3097" stroke="#E5B20E" stroke-width="0.231276" stroke-miterlimit="10" stroke-linecap="round"/>
<path id="Vector_203" d="M41.5199 32.5205V33.3097" stroke="#E5B20E" stroke-width="0.231276" stroke-miterlimit="10" stroke-linecap="round"/>
<path id="Vector_204" d="M41.9992 32.5205V33.3097" stroke="#E5B20E" stroke-width="0.231276" stroke-miterlimit="10" stroke-linecap="round"/>
<path id="Vector_205" d="M42.4808 32.5205V33.3097" stroke="#E5B20E" stroke-width="0.231276" stroke-miterlimit="10" stroke-linecap="round"/>
<path id="Vector_206" style="mix-blend-mode:multiply" d="M37.0947 32.9971V33.2355C37.0944 33.2783 37.1026 33.3208 37.1187 33.3604C37.1349 33.4 37.1587 33.436 37.1889 33.4664C37.219 33.4967 37.2548 33.5208 37.2943 33.5373C37.3338 33.5537 37.3762 33.5622 37.419 33.5622H42.7335C42.8202 33.5622 42.9033 33.5278 42.9645 33.4665C43.0258 33.4052 43.0602 33.3222 43.0602 33.2355V32.5989C43.0627 32.576 43.0627 32.5528 43.0602 32.5298C41.5962 32.9518 38.1629 33.0615 37.0947 32.9971Z" fill="url(#paint0_radial_539_11768)"/>
<path id="Vector_207" d="M42.7693 30.9824H37.872C37.577 30.9824 37.3379 31.2215 37.3379 31.5165V31.7358C37.3379 32.0308 37.577 32.2699 37.872 32.2699H42.7693C43.0643 32.2699 43.3034 32.0308 43.3034 31.7358V31.5165C43.3034 31.2215 43.0643 30.9824 42.7693 30.9824Z" fill="#FFDE82"/>
<path id="Vector_208" d="M37.9149 31.2329V32.0221" stroke="#E5B20E" stroke-width="0.231276" stroke-miterlimit="10" stroke-linecap="round"/>
<path id="Vector_209" d="M38.3965 31.2329V32.0221" stroke="#E5B20E" stroke-width="0.231276" stroke-miterlimit="10" stroke-linecap="round"/>
<path id="Vector_210" d="M38.8781 31.2329V32.0221" stroke="#E5B20E" stroke-width="0.231276" stroke-miterlimit="10" stroke-linecap="round"/>
<path id="Vector_211" d="M39.3574 31.2329V32.0221" stroke="#E5B20E" stroke-width="0.231276" stroke-miterlimit="10" stroke-linecap="round"/>
<path id="Vector_212" d="M39.839 31.2329V32.0221" stroke="#E5B20E" stroke-width="0.231276" stroke-miterlimit="10" stroke-linecap="round"/>
<path id="Vector_213" d="M40.3206 31.2329V32.0221" stroke="#E5B20E" stroke-width="0.231276" stroke-miterlimit="10" stroke-linecap="round"/>
<path id="Vector_214" d="M40.8023 31.2329V32.0221" stroke="#E5B20E" stroke-width="0.231276" stroke-miterlimit="10" stroke-linecap="round"/>
<path id="Vector_215" d="M41.2815 31.2329V32.0221" stroke="#E5B20E" stroke-width="0.231276" stroke-miterlimit="10" stroke-linecap="round"/>
<path id="Vector_216" d="M41.7631 31.2329V32.0221" stroke="#E5B20E" stroke-width="0.231276" stroke-miterlimit="10" stroke-linecap="round"/>
<path id="Vector_217" d="M42.2447 31.2329V32.0221" stroke="#E5B20E" stroke-width="0.231276" stroke-miterlimit="10" stroke-linecap="round"/>
<path id="Vector_218" d="M42.7264 31.2329V32.0221" stroke="#E5B20E" stroke-width="0.231276" stroke-miterlimit="10" stroke-linecap="round"/>
<path id="Vector_219" style="mix-blend-mode:multiply" d="M37.3474 31.7075V31.946C37.3474 32.032 37.3816 32.1145 37.4424 32.1753C37.5032 32.2361 37.5857 32.2703 37.6717 32.2703H42.9887C43.0747 32.2703 43.1571 32.2361 43.218 32.1753C43.2788 32.1145 43.3129 32.032 43.3129 31.946V31.307C43.3153 31.2848 43.3153 31.2624 43.3129 31.2402C41.8418 31.6623 38.4084 31.7719 37.3474 31.7075Z" fill="url(#paint1_radial_539_11768)"/>
<path id="Vector_220" d="M42.2877 29.6948H37.3903C37.0954 29.6948 36.8563 29.9339 36.8563 30.2289V30.4483C36.8563 30.7433 37.0954 30.9824 37.3903 30.9824H42.2877C42.5826 30.9824 42.8217 30.7433 42.8217 30.4483V30.2289C42.8217 29.9339 42.5826 29.6948 42.2877 29.6948Z" fill="#FFDE82"/>
<path id="Vector_221" d="M37.4333 29.9429V30.7345" stroke="#E5B20E" stroke-width="0.231276" stroke-miterlimit="10" stroke-linecap="round"/>
<path id="Vector_222" d="M37.9149 29.9429V30.7345" stroke="#E5B20E" stroke-width="0.231276" stroke-miterlimit="10" stroke-linecap="round"/>
<path id="Vector_223" d="M38.3965 29.9429V30.7345" stroke="#E5B20E" stroke-width="0.231276" stroke-miterlimit="10" stroke-linecap="round"/>
<path id="Vector_224" d="M38.8781 29.9429V30.7345" stroke="#E5B20E" stroke-width="0.231276" stroke-miterlimit="10" stroke-linecap="round"/>
<path id="Vector_225" d="M39.3574 29.9429V30.7345" stroke="#E5B20E" stroke-width="0.231276" stroke-miterlimit="10" stroke-linecap="round"/>
<path id="Vector_226" d="M39.839 29.9429V30.7345" stroke="#E5B20E" stroke-width="0.231276" stroke-miterlimit="10" stroke-linecap="round"/>
<path id="Vector_227" d="M40.3206 29.9429V30.7345" stroke="#E5B20E" stroke-width="0.231276" stroke-miterlimit="10" stroke-linecap="round"/>
<path id="Vector_228" d="M40.8023 29.9429V30.7345" stroke="#E5B20E" stroke-width="0.231276" stroke-miterlimit="10" stroke-linecap="round"/>
<path id="Vector_229" d="M41.2815 29.9429V30.7345" stroke="#E5B20E" stroke-width="0.231276" stroke-miterlimit="10" stroke-linecap="round"/>
<path id="Vector_230" d="M41.7631 29.9429V30.7345" stroke="#E5B20E" stroke-width="0.231276" stroke-miterlimit="10" stroke-linecap="round"/>
<path id="Vector_231" d="M42.2447 29.9429V30.7345" stroke="#E5B20E" stroke-width="0.231276" stroke-miterlimit="10" stroke-linecap="round"/>
<path id="Vector_232" style="mix-blend-mode:multiply" d="M36.8563 30.42V30.6584C36.8563 30.7012 36.8647 30.7436 36.8812 30.7831C36.8976 30.8226 36.9217 30.8584 36.9521 30.8885C36.9825 30.9187 37.0185 30.9425 37.0581 30.9587C37.0977 30.9748 37.1402 30.983 37.1829 30.9827H42.4975C42.5835 30.9827 42.666 30.9485 42.7268 30.8877C42.7876 30.8269 42.8217 30.7444 42.8217 30.6584V30.0194C42.8242 29.9972 42.8242 29.9748 42.8217 29.9526C41.3602 30.3747 37.9268 30.4844 36.8563 30.42Z" fill="url(#paint2_radial_539_11768)"/>
<path id="Vector_233" d="M42.7693 28.4053H37.872C37.577 28.4053 37.3379 28.6444 37.3379 28.9394V29.1587C37.3379 29.4537 37.577 29.6928 37.872 29.6928H42.7693C43.0643 29.6928 43.3034 29.4537 43.3034 29.1587V28.9394C43.3034 28.6444 43.0643 28.4053 42.7693 28.4053Z" fill="#FFDE82"/>
<path id="Vector_234" d="M37.9149 28.6553V29.4445" stroke="#E5B20E" stroke-width="0.231276" stroke-miterlimit="10" stroke-linecap="round"/>
<path id="Vector_235" d="M38.3965 28.6553V29.4445" stroke="#E5B20E" stroke-width="0.231276" stroke-miterlimit="10" stroke-linecap="round"/>
<path id="Vector_236" d="M38.8781 28.6553V29.4445" stroke="#E5B20E" stroke-width="0.231276" stroke-miterlimit="10" stroke-linecap="round"/>
<path id="Vector_237" d="M39.3574 28.6553V29.4445" stroke="#E5B20E" stroke-width="0.231276" stroke-miterlimit="10" stroke-linecap="round"/>
<path id="Vector_238" d="M39.839 28.6553V29.4445" stroke="#E5B20E" stroke-width="0.231276" stroke-miterlimit="10" stroke-linecap="round"/>
<path id="Vector_239" d="M40.3206 28.6553V29.4445" stroke="#E5B20E" stroke-width="0.231276" stroke-miterlimit="10" stroke-linecap="round"/>
<path id="Vector_240" d="M40.8023 28.6553V29.4445" stroke="#E5B20E" stroke-width="0.231276" stroke-miterlimit="10" stroke-linecap="round"/>
<path id="Vector_241" d="M41.2815 28.6553V29.4445" stroke="#E5B20E" stroke-width="0.231276" stroke-miterlimit="10" stroke-linecap="round"/>
<path id="Vector_242" d="M41.7631 28.6553V29.4445" stroke="#E5B20E" stroke-width="0.231276" stroke-miterlimit="10" stroke-linecap="round"/>
<path id="Vector_243" d="M42.2447 28.6553V29.4445" stroke="#E5B20E" stroke-width="0.231276" stroke-miterlimit="10" stroke-linecap="round"/>
<path id="Vector_244" d="M42.7264 28.6553V29.4445" stroke="#E5B20E" stroke-width="0.231276" stroke-miterlimit="10" stroke-linecap="round"/>
<path id="Vector_245" style="mix-blend-mode:multiply" d="M37.3474 29.1327V29.3711C37.3474 29.4573 37.3815 29.5401 37.4423 29.6013C37.503 29.6625 37.5855 29.6971 37.6717 29.6978H42.9887C43.0749 29.6971 43.1574 29.6625 43.2181 29.6013C43.2788 29.5401 43.3129 29.4573 43.3129 29.3711V28.725C43.3153 28.7028 43.3153 28.6804 43.3129 28.6582C41.8418 29.085 38.4084 29.2018 37.3474 29.1327Z" fill="url(#paint3_radial_539_11768)"/>
<path id="Vector_246" d="M42.5237 27.1177H37.6264C37.3314 27.1177 37.0923 27.3568 37.0923 27.6518V27.8711C37.0923 28.1661 37.3314 28.4052 37.6264 28.4052H42.5237C42.8187 28.4052 43.0578 28.1661 43.0578 27.8711V27.6518C43.0578 27.3568 42.8187 27.1177 42.5237 27.1177Z" fill="#FFDE82"/>
<path id="Vector_247" d="M37.6717 27.3657V28.1573" stroke="#E5B20E" stroke-width="0.231276" stroke-miterlimit="10" stroke-linecap="round"/>
<path id="Vector_248" d="M38.1509 27.3657V28.1573" stroke="#E5B20E" stroke-width="0.231276" stroke-miterlimit="10" stroke-linecap="round"/>
<path id="Vector_249" d="M38.6326 27.3657V28.1573" stroke="#E5B20E" stroke-width="0.231276" stroke-miterlimit="10" stroke-linecap="round"/>
<path id="Vector_250" d="M39.1142 27.3657V28.1573" stroke="#E5B20E" stroke-width="0.231276" stroke-miterlimit="10" stroke-linecap="round"/>
<path id="Vector_251" d="M39.5958 27.3657V28.1573" stroke="#E5B20E" stroke-width="0.231276" stroke-miterlimit="10" stroke-linecap="round"/>
<path id="Vector_252" d="M40.075 27.3657V28.1573" stroke="#E5B20E" stroke-width="0.231276" stroke-miterlimit="10" stroke-linecap="round"/>
<path id="Vector_253" d="M40.5567 27.3657V28.1573" stroke="#E5B20E" stroke-width="0.231276" stroke-miterlimit="10" stroke-linecap="round"/>
<path id="Vector_254" d="M41.0383 27.3657V28.1573" stroke="#E5B20E" stroke-width="0.231276" stroke-miterlimit="10" stroke-linecap="round"/>
<path id="Vector_255" d="M41.5199 27.3657V28.1573" stroke="#E5B20E" stroke-width="0.231276" stroke-miterlimit="10" stroke-linecap="round"/>
<path id="Vector_256" d="M41.9992 27.3657V28.1573" stroke="#E5B20E" stroke-width="0.231276" stroke-miterlimit="10" stroke-linecap="round"/>
<path id="Vector_257" d="M42.4808 27.3657V28.1573" stroke="#E5B20E" stroke-width="0.231276" stroke-miterlimit="10" stroke-linecap="round"/>
<path id="Vector_258" style="mix-blend-mode:multiply" d="M37.0947 27.8423V28.0807C37.0947 28.1667 37.1289 28.2492 37.1897 28.31C37.2505 28.3708 37.333 28.405 37.419 28.405H42.7335C42.7763 28.4053 42.8188 28.3971 42.8584 28.381C42.898 28.3648 42.934 28.341 42.9644 28.3108C42.9947 28.2807 43.0188 28.2449 43.0353 28.2054C43.0517 28.1659 43.0602 28.1235 43.0602 28.0807V27.4418C43.0626 27.4196 43.0626 27.3972 43.0602 27.375C41.5962 27.797 38.1629 27.9067 37.0947 27.8423Z" fill="url(#paint4_radial_539_11768)"/>
<path id="Vector_259" d="M20.3189 32.2725H15.4215C15.1266 32.2725 14.8875 32.5116 14.8875 32.8065V33.0259C14.8875 33.3209 15.1266 33.56 15.4215 33.56H20.3189C20.6138 33.56 20.853 33.3209 20.853 33.0259V32.8065C20.853 32.5116 20.6138 32.2725 20.3189 32.2725Z" fill="#FFDE82"/>
<path id="Vector_260" d="M15.4645 32.5205V33.3097" stroke="#E5B20E" stroke-width="0.231276" stroke-miterlimit="10" stroke-linecap="round"/>
<path id="Vector_261" d="M15.9461 32.5205V33.3097" stroke="#E5B20E" stroke-width="0.231276" stroke-miterlimit="10" stroke-linecap="round"/>
<path id="Vector_262" d="M16.4253 32.5205V33.3097" stroke="#E5B20E" stroke-width="0.231276" stroke-miterlimit="10" stroke-linecap="round"/>
<path id="Vector_263" d="M16.907 32.5205V33.3097" stroke="#E5B20E" stroke-width="0.231276" stroke-miterlimit="10" stroke-linecap="round"/>
<path id="Vector_264" d="M17.3886 32.5205V33.3097" stroke="#E5B20E" stroke-width="0.231276" stroke-miterlimit="10" stroke-linecap="round"/>
<path id="Vector_265" d="M17.8702 32.5205V33.3097" stroke="#E5B20E" stroke-width="0.231276" stroke-miterlimit="10" stroke-linecap="round"/>
<path id="Vector_266" d="M18.3495 32.5205V33.3097" stroke="#E5B20E" stroke-width="0.231276" stroke-miterlimit="10" stroke-linecap="round"/>
<path id="Vector_267" d="M18.8311 32.5205V33.3097" stroke="#E5B20E" stroke-width="0.231276" stroke-miterlimit="10" stroke-linecap="round"/>
<path id="Vector_268" d="M19.3127 32.5205V33.3097" stroke="#E5B20E" stroke-width="0.231276" stroke-miterlimit="10" stroke-linecap="round"/>
<path id="Vector_269" d="M19.7943 32.5205V33.3097" stroke="#E5B20E" stroke-width="0.231276" stroke-miterlimit="10" stroke-linecap="round"/>
<path id="Vector_270" d="M20.2736 32.5205V33.3097" stroke="#E5B20E" stroke-width="0.231276" stroke-miterlimit="10" stroke-linecap="round"/>
<path id="Vector_271" style="mix-blend-mode:multiply" d="M14.8875 32.9971V33.2355C14.8872 33.2783 14.8953 33.3208 14.9115 33.3604C14.9276 33.4 14.9515 33.436 14.9816 33.4664C15.0118 33.4967 15.0476 33.5208 15.0871 33.5373C15.1266 33.5537 15.169 33.5622 15.2118 33.5622H20.5287C20.5715 33.5622 20.6139 33.5537 20.6534 33.5373C20.6929 33.5208 20.7287 33.4967 20.7588 33.4664C20.789 33.436 20.8128 33.4 20.829 33.3604C20.8451 33.3208 20.8533 33.2783 20.853 33.2355V32.5989C20.8554 32.576 20.8554 32.5528 20.853 32.5298C19.3914 32.9518 15.9557 33.0615 14.8875 32.9971Z" fill="url(#paint5_radial_539_11768)"/>
<path id="Vector_272" d="M20.5621 30.9824H15.6647C15.3698 30.9824 15.1307 31.2215 15.1307 31.5165V31.7358C15.1307 32.0308 15.3698 32.2699 15.6647 32.2699H20.5621C20.857 32.2699 21.0961 32.0308 21.0961 31.7358V31.5165C21.0961 31.2215 20.857 30.9824 20.5621 30.9824Z" fill="#FFDE82"/>
<path id="Vector_273" d="M15.7077 31.2329V32.0221" stroke="#E5B20E" stroke-width="0.231276" stroke-miterlimit="10" stroke-linecap="round"/>
<path id="Vector_274" d="M16.1893 31.2329V32.0221" stroke="#E5B20E" stroke-width="0.231276" stroke-miterlimit="10" stroke-linecap="round"/>
<path id="Vector_275" d="M16.6709 31.2329V32.0221" stroke="#E5B20E" stroke-width="0.231276" stroke-miterlimit="10" stroke-linecap="round"/>
<path id="Vector_276" d="M17.1525 31.2329V32.0221" stroke="#E5B20E" stroke-width="0.231276" stroke-miterlimit="10" stroke-linecap="round"/>
<path id="Vector_277" d="M17.6318 31.2329V32.0221" stroke="#E5B20E" stroke-width="0.231276" stroke-miterlimit="10" stroke-linecap="round"/>
<path id="Vector_278" d="M18.1134 31.2329V32.0221" stroke="#E5B20E" stroke-width="0.231276" stroke-miterlimit="10" stroke-linecap="round"/>
<path id="Vector_279" d="M18.595 31.2329V32.0221" stroke="#E5B20E" stroke-width="0.231276" stroke-miterlimit="10" stroke-linecap="round"/>
<path id="Vector_280" d="M19.0767 31.2329V32.0221" stroke="#E5B20E" stroke-width="0.231276" stroke-miterlimit="10" stroke-linecap="round"/>
<path id="Vector_281" d="M19.5559 31.2329V32.0221" stroke="#E5B20E" stroke-width="0.231276" stroke-miterlimit="10" stroke-linecap="round"/>
<path id="Vector_282" d="M20.0375 31.2329V32.0221" stroke="#E5B20E" stroke-width="0.231276" stroke-miterlimit="10" stroke-linecap="round"/>
<path id="Vector_283" d="M20.5191 31.2329V32.0221" stroke="#E5B20E" stroke-width="0.231276" stroke-miterlimit="10" stroke-linecap="round"/>
<path id="Vector_284" style="mix-blend-mode:multiply" d="M15.1307 31.7075V31.946C15.1307 31.9888 15.1391 32.0311 15.1556 32.0706C15.172 32.1101 15.1961 32.1459 15.2265 32.1761C15.2569 32.2062 15.2929 32.2301 15.3325 32.2462C15.3721 32.2624 15.4145 32.2706 15.4573 32.2703H20.7719C20.8579 32.2703 20.9404 32.2361 21.0012 32.1753C21.062 32.1145 21.0961 32.032 21.0961 31.946V31.307C21.0985 31.2848 21.0985 31.2624 21.0961 31.2402C19.6346 31.6623 16.2012 31.7719 15.1307 31.7075Z" fill="url(#paint6_radial_539_11768)"/>
<path id="Vector_285" d="M20.0804 29.6948H15.1831C14.8881 29.6948 14.649 29.9339 14.649 30.2289V30.4483C14.649 30.7433 14.8881 30.9824 15.1831 30.9824H20.0804C20.3754 30.9824 20.6145 30.7433 20.6145 30.4483V30.2289C20.6145 29.9339 20.3754 29.6948 20.0804 29.6948Z" fill="#FFDE82"/>
<path id="Vector_286" d="M15.2284 29.9429V30.7345" stroke="#E5B20E" stroke-width="0.231276" stroke-miterlimit="10" stroke-linecap="round"/>
<path id="Vector_287" d="M15.7077 29.9429V30.7345" stroke="#E5B20E" stroke-width="0.231276" stroke-miterlimit="10" stroke-linecap="round"/>
<path id="Vector_288" d="M16.1893 29.9429V30.7345" stroke="#E5B20E" stroke-width="0.231276" stroke-miterlimit="10" stroke-linecap="round"/>
<path id="Vector_289" d="M16.6709 29.9429V30.7345" stroke="#E5B20E" stroke-width="0.231276" stroke-miterlimit="10" stroke-linecap="round"/>
<path id="Vector_290" d="M17.1525 29.9429V30.7345" stroke="#E5B20E" stroke-width="0.231276" stroke-miterlimit="10" stroke-linecap="round"/>
<path id="Vector_291" d="M17.6318 29.9429V30.7345" stroke="#E5B20E" stroke-width="0.231276" stroke-miterlimit="10" stroke-linecap="round"/>
<path id="Vector_292" d="M18.1134 29.9429V30.7345" stroke="#E5B20E" stroke-width="0.231276" stroke-miterlimit="10" stroke-linecap="round"/>
<path id="Vector_293" d="M18.595 29.9429V30.7345" stroke="#E5B20E" stroke-width="0.231276" stroke-miterlimit="10" stroke-linecap="round"/>
<path id="Vector_294" d="M19.0767 29.9429V30.7345" stroke="#E5B20E" stroke-width="0.231276" stroke-miterlimit="10" stroke-linecap="round"/>
<path id="Vector_295" d="M19.5559 29.9429V30.7345" stroke="#E5B20E" stroke-width="0.231276" stroke-miterlimit="10" stroke-linecap="round"/>
<path id="Vector_296" d="M20.0375 29.9429V30.7345" stroke="#E5B20E" stroke-width="0.231276" stroke-miterlimit="10" stroke-linecap="round"/>
<path id="Vector_297" style="mix-blend-mode:multiply" d="M14.6514 30.42V30.6584C14.6514 30.7444 14.6856 30.8269 14.7464 30.8877C14.8072 30.9485 14.8897 30.9827 14.9757 30.9827H20.2903C20.333 30.983 20.3755 30.9748 20.4151 30.9587C20.4547 30.9425 20.4907 30.9187 20.5211 30.8885C20.5514 30.8584 20.5756 30.8226 20.592 30.7831C20.6085 30.7436 20.6169 30.7012 20.6169 30.6584V30.0194C20.6194 29.9972 20.6194 29.9748 20.6169 29.9526C19.1529 30.3747 15.7196 30.4844 14.6514 30.42Z" fill="url(#paint7_radial_539_11768)"/>
<path id="Vector_298" d="M20.5621 28.4053H15.6647C15.3698 28.4053 15.1307 28.6444 15.1307 28.9394V29.1587C15.1307 29.4537 15.3698 29.6928 15.6647 29.6928H20.5621C20.857 29.6928 21.0961 29.4537 21.0961 29.1587V28.9394C21.0961 28.6444 20.857 28.4053 20.5621 28.4053Z" fill="#FFDE82"/>
<path id="Vector_299" d="M15.7077 28.6553V29.4445" stroke="#E5B20E" stroke-width="0.231276" stroke-miterlimit="10" stroke-linecap="round"/>
<path id="Vector_300" d="M16.1893 28.6553V29.4445" stroke="#E5B20E" stroke-width="0.231276" stroke-miterlimit="10" stroke-linecap="round"/>
<path id="Vector_301" d="M16.6709 28.6553V29.4445" stroke="#E5B20E" stroke-width="0.231276" stroke-miterlimit="10" stroke-linecap="round"/>
<path id="Vector_302" d="M17.1525 28.6553V29.4445" stroke="#E5B20E" stroke-width="0.231276" stroke-miterlimit="10" stroke-linecap="round"/>
<path id="Vector_303" d="M17.6318 28.6553V29.4445" stroke="#E5B20E" stroke-width="0.231276" stroke-miterlimit="10" stroke-linecap="round"/>
<path id="Vector_304" d="M18.1134 28.6553V29.4445" stroke="#E5B20E" stroke-width="0.231276" stroke-miterlimit="10" stroke-linecap="round"/>
<path id="Vector_305" d="M18.595 28.6553V29.4445" stroke="#E5B20E" stroke-width="0.231276" stroke-miterlimit="10" stroke-linecap="round"/>
<path id="Vector_306" d="M19.0767 28.6553V29.4445" stroke="#E5B20E" stroke-width="0.231276" stroke-miterlimit="10" stroke-linecap="round"/>
<path id="Vector_307" d="M19.5559 28.6553V29.4445" stroke="#E5B20E" stroke-width="0.231276" stroke-miterlimit="10" stroke-linecap="round"/>
<path id="Vector_308" d="M20.0375 28.6553V29.4445" stroke="#E5B20E" stroke-width="0.231276" stroke-miterlimit="10" stroke-linecap="round"/>
<path id="Vector_309" d="M20.5191 28.6553V29.4445" stroke="#E5B20E" stroke-width="0.231276" stroke-miterlimit="10" stroke-linecap="round"/>
<path id="Vector_310" style="mix-blend-mode:multiply" d="M15.1307 29.1327V29.3711C15.1307 29.4577 15.1651 29.5408 15.2264 29.6021C15.2876 29.6633 15.3707 29.6978 15.4573 29.6978H20.7719C20.8581 29.6971 20.9406 29.6625 21.0013 29.6013C21.0621 29.5401 21.0961 29.4573 21.0961 29.3711V28.725C21.0985 28.7028 21.0985 28.6804 21.0961 28.6582C19.6346 29.085 16.2012 29.2018 15.1307 29.1327Z" fill="url(#paint8_radial_539_11768)"/>
<path id="Vector_311" d="M20.3189 27.1177H15.4215C15.1266 27.1177 14.8875 27.3568 14.8875 27.6518V27.8711C14.8875 28.1661 15.1266 28.4052 15.4215 28.4052H20.3189C20.6138 28.4052 20.853 28.1661 20.853 27.8711V27.6518C20.853 27.3568 20.6138 27.1177 20.3189 27.1177Z" fill="#FFDE82"/>
<path id="Vector_312" d="M15.4645 27.3657V28.1573" stroke="#E5B20E" stroke-width="0.231276" stroke-miterlimit="10" stroke-linecap="round"/>
<path id="Vector_313" d="M15.9461 27.3657V28.1573" stroke="#E5B20E" stroke-width="0.231276" stroke-miterlimit="10" stroke-linecap="round"/>
<path id="Vector_314" d="M16.4253 27.3657V28.1573" stroke="#E5B20E" stroke-width="0.231276" stroke-miterlimit="10" stroke-linecap="round"/>
<path id="Vector_315" d="M16.907 27.3657V28.1573" stroke="#E5B20E" stroke-width="0.231276" stroke-miterlimit="10" stroke-linecap="round"/>
<path id="Vector_316" d="M17.3886 27.3657V28.1573" stroke="#E5B20E" stroke-width="0.231276" stroke-miterlimit="10" stroke-linecap="round"/>
<path id="Vector_317" d="M17.8702 27.3657V28.1573" stroke="#E5B20E" stroke-width="0.231276" stroke-miterlimit="10" stroke-linecap="round"/>
<path id="Vector_318" d="M18.3495 27.3657V28.1573" stroke="#E5B20E" stroke-width="0.231276" stroke-miterlimit="10" stroke-linecap="round"/>
<path id="Vector_319" d="M18.8311 27.3657V28.1573" stroke="#E5B20E" stroke-width="0.231276" stroke-miterlimit="10" stroke-linecap="round"/>
<path id="Vector_320" d="M19.3127 27.3657V28.1573" stroke="#E5B20E" stroke-width="0.231276" stroke-miterlimit="10" stroke-linecap="round"/>
<path id="Vector_321" d="M19.7943 27.3657V28.1573" stroke="#E5B20E" stroke-width="0.231276" stroke-miterlimit="10" stroke-linecap="round"/>
<path id="Vector_322" d="M20.2736 27.3657V28.1573" stroke="#E5B20E" stroke-width="0.231276" stroke-miterlimit="10" stroke-linecap="round"/>
<path id="Vector_323" style="mix-blend-mode:multiply" d="M14.8875 27.8423V28.0807C14.8875 28.1667 14.9217 28.2492 14.9825 28.31C15.0433 28.3708 15.1258 28.405 15.2118 28.405H20.5287C20.6147 28.405 20.6972 28.3708 20.758 28.31C20.8188 28.2492 20.853 28.1667 20.853 28.0807V27.4418C20.8554 27.4196 20.8554 27.3972 20.853 27.375C19.3914 27.797 15.9557 27.9067 14.8875 27.8423Z" fill="url(#paint9_radial_539_11768)"/>
<path id="Vector_324" d="M32.7029 32.1699H27.8055C27.5106 32.1699 27.2715 32.409 27.2715 32.704V32.9233C27.2715 33.2183 27.5106 33.4574 27.8055 33.4574H32.7029C32.9978 33.4574 33.2369 33.2183 33.2369 32.9233V32.704C33.2369 32.409 32.9978 32.1699 32.7029 32.1699Z" fill="#FFDE82"/>
<path id="Vector_325" d="M27.8484 32.4175V33.209" stroke="#E5B20E" stroke-width="0.231276" stroke-miterlimit="10" stroke-linecap="round"/>
<path id="Vector_326" d="M28.33 32.4175V33.209" stroke="#E5B20E" stroke-width="0.231276" stroke-miterlimit="10" stroke-linecap="round"/>
<path id="Vector_327" d="M28.8117 32.4175V33.209" stroke="#E5B20E" stroke-width="0.231276" stroke-miterlimit="10" stroke-linecap="round"/>
<path id="Vector_328" d="M29.2933 32.4175V33.209" stroke="#E5B20E" stroke-width="0.231276" stroke-miterlimit="10" stroke-linecap="round"/>
<path id="Vector_329" d="M29.7726 32.4175V33.209" stroke="#E5B20E" stroke-width="0.231276" stroke-miterlimit="10" stroke-linecap="round"/>
<path id="Vector_330" d="M30.2542 32.4175V33.209" stroke="#E5B20E" stroke-width="0.231276" stroke-miterlimit="10" stroke-linecap="round"/>
<path id="Vector_331" d="M30.7358 32.4175V33.209" stroke="#E5B20E" stroke-width="0.231276" stroke-miterlimit="10" stroke-linecap="round"/>
<path id="Vector_332" d="M31.215 32.4175V33.209" stroke="#E5B20E" stroke-width="0.231276" stroke-miterlimit="10" stroke-linecap="round"/>
<path id="Vector_333" d="M31.6967 32.4175V33.209" stroke="#E5B20E" stroke-width="0.231276" stroke-miterlimit="10" stroke-linecap="round"/>
<path id="Vector_334" d="M32.1783 32.4175V33.209" stroke="#E5B20E" stroke-width="0.231276" stroke-miterlimit="10" stroke-linecap="round"/>
<path id="Vector_335" d="M32.6599 32.4175V33.209" stroke="#E5B20E" stroke-width="0.231276" stroke-miterlimit="10" stroke-linecap="round"/>
<path id="Vector_336" style="mix-blend-mode:multiply" d="M27.2715 32.895V33.1335C27.2715 33.1763 27.2799 33.2186 27.2964 33.2581C27.3128 33.2976 27.3369 33.3335 27.3673 33.3636C27.3976 33.3938 27.4337 33.4176 27.4733 33.4337C27.5129 33.4499 27.5553 33.4581 27.5981 33.4578H32.9127C32.9987 33.4578 33.0812 33.4236 33.142 33.3628C33.2028 33.302 33.2369 33.2195 33.2369 33.1335V32.4945C33.2394 32.4723 33.2394 32.4499 33.2369 32.4277C31.7754 32.8498 28.342 32.9594 27.2715 32.895Z" fill="url(#paint10_radial_539_11768)"/>
<path id="Vector_337" d="M32.946 30.8823H28.0487C27.7538 30.8823 27.5146 31.1214 27.5146 31.4164V31.6357C27.5146 31.9307 27.7538 32.1698 28.0487 32.1698H32.946C33.241 32.1698 33.4801 31.9307 33.4801 31.6357V31.4164C33.4801 31.1214 33.241 30.8823 32.946 30.8823Z" fill="#FFDE82"/>
<path id="Vector_338" d="M28.094 31.1304V31.9196" stroke="#E5B20E" stroke-width="0.231276" stroke-miterlimit="10" stroke-linecap="round"/>
<path id="Vector_339" d="M28.5757 31.1304V31.9196" stroke="#E5B20E" stroke-width="0.231276" stroke-miterlimit="10" stroke-linecap="round"/>
<path id="Vector_340" d="M29.0549 31.1304V31.9196" stroke="#E5B20E" stroke-width="0.231276" stroke-miterlimit="10" stroke-linecap="round"/>
<path id="Vector_341" d="M29.5365 31.1304V31.9196" stroke="#E5B20E" stroke-width="0.231276" stroke-miterlimit="10" stroke-linecap="round"/>
<path id="Vector_342" d="M30.0182 31.1304V31.9196" stroke="#E5B20E" stroke-width="0.231276" stroke-miterlimit="10" stroke-linecap="round"/>
<path id="Vector_343" d="M30.4974 31.1304V31.9196" stroke="#E5B20E" stroke-width="0.231276" stroke-miterlimit="10" stroke-linecap="round"/>
<path id="Vector_344" d="M30.979 31.1304V31.9196" stroke="#E5B20E" stroke-width="0.231276" stroke-miterlimit="10" stroke-linecap="round"/>
<path id="Vector_345" d="M31.4606 31.1304V31.9196" stroke="#E5B20E" stroke-width="0.231276" stroke-miterlimit="10" stroke-linecap="round"/>
<path id="Vector_346" d="M31.9423 31.1304V31.9196" stroke="#E5B20E" stroke-width="0.231276" stroke-miterlimit="10" stroke-linecap="round"/>
<path id="Vector_347" d="M32.4215 31.1304V31.9196" stroke="#E5B20E" stroke-width="0.231276" stroke-miterlimit="10" stroke-linecap="round"/>
<path id="Vector_348" d="M32.9031 31.1304V31.9196" stroke="#E5B20E" stroke-width="0.231276" stroke-miterlimit="10" stroke-linecap="round"/>
<path id="Vector_349" style="mix-blend-mode:multiply" d="M27.5171 31.6075V31.8459C27.5167 31.8887 27.5249 31.9311 27.541 31.9707C27.5572 32.0104 27.581 32.0464 27.6112 32.0767C27.6413 32.1071 27.6772 32.1312 27.7167 32.1476C27.7562 32.1641 27.7985 32.1726 27.8413 32.1726H33.1559C33.2425 32.1726 33.3256 32.1382 33.3869 32.0769C33.4481 32.0157 33.4825 31.9326 33.4825 31.8459V31.2093C33.4849 31.1863 33.4849 31.1631 33.4825 31.1401C32.021 31.5622 28.5852 31.6719 27.5171 31.6075Z" fill="url(#paint11_radial_539_11768)"/>
<path id="Vector_350" d="M32.4668 29.5928H27.5695C27.2745 29.5928 27.0354 29.8319 27.0354 30.1269V30.3462C27.0354 30.6412 27.2745 30.8803 27.5695 30.8803H32.4668C32.7618 30.8803 33.0009 30.6412 33.0009 30.3462V30.1269C33.0009 29.8319 32.7618 29.5928 32.4668 29.5928Z" fill="#FFDE82"/>
<path id="Vector_351" d="M27.6124 29.8428V30.632" stroke="#E5B20E" stroke-width="0.231276" stroke-miterlimit="10" stroke-linecap="round"/>
<path id="Vector_352" d="M28.094 29.8428V30.632" stroke="#E5B20E" stroke-width="0.231276" stroke-miterlimit="10" stroke-linecap="round"/>
<path id="Vector_353" d="M28.5757 29.8428V30.632" stroke="#E5B20E" stroke-width="0.231276" stroke-miterlimit="10" stroke-linecap="round"/>
<path id="Vector_354" d="M29.0549 29.8428V30.632" stroke="#E5B20E" stroke-width="0.231276" stroke-miterlimit="10" stroke-linecap="round"/>
<path id="Vector_355" d="M29.5365 29.8428V30.632" stroke="#E5B20E" stroke-width="0.231276" stroke-miterlimit="10" stroke-linecap="round"/>
<path id="Vector_356" d="M30.0182 29.8428V30.632" stroke="#E5B20E" stroke-width="0.231276" stroke-miterlimit="10" stroke-linecap="round"/>
<path id="Vector_357" d="M30.4974 29.8428V30.632" stroke="#E5B20E" stroke-width="0.231276" stroke-miterlimit="10" stroke-linecap="round"/>
<path id="Vector_358" d="M30.979 29.8428V30.632" stroke="#E5B20E" stroke-width="0.231276" stroke-miterlimit="10" stroke-linecap="round"/>
<path id="Vector_359" d="M31.4606 29.8428V30.632" stroke="#E5B20E" stroke-width="0.231276" stroke-miterlimit="10" stroke-linecap="round"/>
<path id="Vector_360" d="M31.9423 29.8428V30.632" stroke="#E5B20E" stroke-width="0.231276" stroke-miterlimit="10" stroke-linecap="round"/>
<path id="Vector_361" d="M32.4215 29.8428V30.632" stroke="#E5B20E" stroke-width="0.231276" stroke-miterlimit="10" stroke-linecap="round"/>
<path id="Vector_362" style="mix-blend-mode:multiply" d="M27.0354 30.3174V30.5558C27.0354 30.6418 27.0696 30.7243 27.1304 30.7851C27.1912 30.8459 27.2737 30.8801 27.3597 30.8801H32.6766C32.7626 30.8801 32.8451 30.8459 32.9059 30.7851C32.9667 30.7243 33.0009 30.6418 33.0009 30.5558V29.9169C33.0032 29.8947 33.0032 29.8723 33.0009 29.8501C31.5393 30.2721 28.1036 30.3937 27.0354 30.3174Z" fill="url(#paint12_radial_539_11768)"/>
<path id="Vector_363" d="M11.2061 53.2873V76.9155H2.10056V41.106L11.2061 53.2873Z" fill="#1F89DB"/>
<path id="Vector_364" d="M7.84431 27.1177H5.01892V29.943H7.84431V27.1177Z" fill="#8EE0B1"/>
<path id="Vector_365" d="M5.44808 30.6558H3.54065V31.8145H5.44808V30.6558Z" fill="#8EE0B1"/>
<path id="Vector_366" d="M9.3297 30.6558H7.42227V31.8145H9.3297V30.6558Z" fill="#B5EACA"/>
<path id="Vector_367" d="M15.4645 38.2402H44.6505V71.811H43.6396V39.2345H16.907L15.4645 38.2402Z" fill="url(#paint13_radial_539_11768)"/>
<path id="Vector_368" d="M12.4317 52.5029V75.528H42.7264L41.5199 74.2667H13.5594V52.5029H12.4317Z" fill="url(#paint14_radial_539_11768)"/>
<g id="Vector_369" style="mix-blend-mode:soft-light">
<path d="M50.771 24.2991C51.2053 24.0523 51.7035 23.941 52.2016 23.9797" stroke="#FFF3D5" stroke-width="0.557923" stroke-miterlimit="10" stroke-linecap="round"/>
</g>
<g id="Vector_370" style="mix-blend-mode:soft-light">
<path d="M9.4823 4.31689C9.69123 4.65526 9.81631 5.03869 9.8471 5.43517" stroke="#FFF3D5" stroke-width="0.557923" stroke-miterlimit="10" stroke-linecap="round"/>
</g>
<g id="Vector_371" style="mix-blend-mode:soft-light">
<path d="M6.45428 3.65599C6.88831 3.40859 7.38694 3.29804 7.88486 3.33886" stroke="#FFF3D5" stroke-width="0.557923" stroke-miterlimit="10" stroke-linecap="round"/>
</g>
<path id="Vector_372" d="M49.1997 74.5454C49.1997 75.8496 48.0672 76.9298 47.3662 76.9154H46.1359C45.3825 76.9154 44.4669 75.4109 44.4669 74.5454C44.4669 73.9188 44.7159 73.3178 45.159 72.8747C45.6021 72.4316 46.2031 72.1826 46.8298 72.1826C47.4564 72.1826 48.0574 72.4316 48.5005 72.8747C48.9436 73.3178 49.1926 73.9188 49.1926 74.5454H49.1997Z" fill="#E46B4C"/>
<path id="Vector_373" d="M60.32 74.5454C60.32 75.8496 59.1851 76.9298 58.4865 76.9154H57.2562C56.5004 76.9154 55.5872 75.4109 55.5872 74.5454C55.5872 73.9188 55.8362 73.3178 56.2793 72.8747C56.7224 72.4316 57.3234 72.1826 57.9501 72.1826C58.5767 72.1826 59.1777 72.4316 59.6208 72.8747C60.0639 73.3178 60.3129 73.9188 60.3129 74.5454H60.32Z" fill="#E46B4C"/>
<path id="Vector_374" d="M39.8247 56.8996L36.7013 51.3276C39.324 50.6623 42.2829 51.8044 43.2104 53.6951" fill="#133DB9"/>
<path id="Vector_375" d="M37.2449 52.2976L39.8247 56.8993L42.4808 54.3862C41.0598 52.6075 39.0665 52.1617 37.2449 52.2976Z" fill="#6CBFFF"/>
<path id="Vector_376" d="M65.9827 64.1027C65.9827 72.0996 59.4784 75.6903 51.4815 75.6903C45.1202 75.6903 36.6989 72.0162 35.0299 68.5685C35.0299 68.5685 34.9989 67.9915 34.9608 67.1856C34.9083 66.0531 34.8439 64.4652 34.8439 63.3708C34.8439 61.5539 37.1162 61.0437 37.8696 59.544C40.6997 53.9028 45.1774 49.6182 51.4934 49.6182C53.3949 49.6169 55.2781 49.9905 57.0351 50.7176C58.7922 51.4448 60.3887 52.5111 61.7333 53.8557C63.0778 55.2003 64.1442 56.7968 64.8713 58.5538C65.5984 60.3109 65.9721 62.194 65.9708 64.0956L65.9827 64.1027Z" fill="#133DB9"/>
<path id="Vector_377" d="M65.9827 64.1027C65.9827 72.0996 59.4784 75.6904 51.4815 75.6904C45.1202 75.6904 36.6989 72.0162 35.0299 68.5685C35.0299 68.5685 34.9989 67.9915 34.9608 67.1856C39.8509 70.7907 44.7554 67.3907 46.7105 67.7435C48.8969 68.1393 48.4081 71.6228 55.5824 71.0553C62.2036 70.5284 66.1687 64.8872 65.0433 58.9956C65.6622 60.6273 65.9804 62.3576 65.9827 64.1027Z" fill="url(#paint15_radial_539_11768)"/>
<path id="Vector_378" d="M36.7013 65.5997C36.7013 66.9063 36.4915 68.0508 36.1744 68.6707C36.0958 68.861 35.9578 69.0207 35.781 69.1261C35.7353 69.1501 35.6847 69.1632 35.6332 69.1643C35.5552 69.1565 35.4801 69.1309 35.4135 69.0896C35.347 69.0482 35.2908 68.9923 35.2493 68.9258C35.0648 68.662 34.9314 68.366 34.8559 68.0531C34.6511 67.2525 34.5525 66.4284 34.5626 65.6021C34.5626 63.6327 35.0395 62.0376 35.6332 62.0376C36.2268 62.0376 36.7013 63.6303 36.7013 65.5997Z" fill="#F09176"/>
<path id="Vector_379" d="M48.4796 52.3433C48.4444 52.3578 48.4051 52.3586 48.3693 52.3456C48.3335 52.3326 48.3039 52.3066 48.2863 52.2728C48.2687 52.2391 48.2643 52.2 48.2741 52.1632C48.2838 52.1263 48.307 52.0945 48.339 52.0739C48.7089 51.8178 49.1147 51.6177 49.5431 51.4802C50.9357 51.0355 52.435 51.0547 53.8157 51.535C54.2409 51.6852 54.6423 51.8956 55.0078 52.1597C55.0354 52.1827 55.0542 52.2145 55.0609 52.2497C55.0677 52.285 55.062 52.3215 55.0448 52.353C55.0277 52.3845 55.0001 52.4091 54.9668 52.4225C54.9335 52.436 54.8966 52.4375 54.8624 52.4267C54.4676 52.2944 54.0636 52.1916 53.6536 52.1192C52.9993 52.003 52.3367 51.94 51.6722 51.9308C51.0075 51.9201 50.3431 51.9655 49.6861 52.0667C49.2774 52.1275 48.874 52.22 48.4796 52.3433Z" fill="#E46B4C"/>
<path id="Vector_380" d="M41.7298 61.3442C42.1643 61.3442 42.5166 60.8009 42.5166 60.1306C42.5166 59.4604 42.1643 58.917 41.7298 58.917C41.2952 58.917 40.9429 59.4604 40.9429 60.1306C40.9429 60.8009 41.2952 61.3442 41.7298 61.3442Z" fill="white"/>
<path id="Vector_381" d="M39.6626 60.4687C40.0971 60.4687 40.4494 59.9254 40.4494 59.2551C40.4494 58.5849 40.0971 58.0415 39.6626 58.0415C39.228 58.0415 38.8757 58.5849 38.8757 59.2551C38.8757 59.9254 39.228 60.4687 39.6626 60.4687Z" fill="white"/>
<path id="Vector_382" d="M36.1076 65.4929V68.2277C36.0301 68.4185 35.8929 68.5791 35.7166 68.6855V65.4929C35.7166 65.441 35.7372 65.3913 35.7738 65.3546C35.8105 65.318 35.8602 65.2974 35.9121 65.2974C35.9639 65.2974 36.0137 65.318 36.0503 65.3546C36.087 65.3913 36.1076 65.441 36.1076 65.4929V65.4929Z" fill="#E46B4C"/>
<path id="Vector_383" d="M35.2994 65.4926V68.4825C35.1145 68.2181 34.9811 67.9213 34.9059 67.6075V65.4926C34.9113 65.4442 34.9343 65.3994 34.9706 65.3669C35.0069 65.3344 35.0539 65.3164 35.1026 65.3164C35.1514 65.3164 35.1984 65.3344 35.2347 65.3669C35.271 65.3994 35.294 65.4442 35.2994 65.4926V65.4926Z" fill="#E46B4C"/>
<path id="Vector_384" d="M43.0077 54.6276L47.0753 52.3555C46.639 50.2978 44.0568 48.4619 41.3531 48.4619L43.0221 54.6276" fill="#6CBFFF"/>
</g>
<defs>
<radialGradient id="paint0_radial_539_11768" cx="0" cy="0" r="1" gradientUnits="userSpaceOnUse" gradientTransform="translate(40.0679 33.7673) scale(3.04712 3.04717)">
<stop stop-color="#FFC90D"/>
<stop offset="1" stop-color="#FFC90D" stop-opacity="0"/>
</radialGradient>
<radialGradient id="paint1_radial_539_11768" cx="0" cy="0" r="1" gradientUnits="userSpaceOnUse" gradientTransform="translate(40.3111 32.4777) scale(3.04712 3.04716)">
<stop stop-color="#FFC90D"/>
<stop offset="1" stop-color="#FFC90D" stop-opacity="0"/>
</radialGradient>
<radialGradient id="paint2_radial_539_11768" cx="0" cy="0" r="1" gradientUnits="userSpaceOnUse" gradientTransform="translate(39.8319 31.1901) scale(3.04712 3.04716)">
<stop stop-color="#FFC90D"/>
<stop offset="1" stop-color="#FFC90D" stop-opacity="0"/>
</radialGradient>
<radialGradient id="paint3_radial_539_11768" cx="0" cy="0" r="1" gradientUnits="userSpaceOnUse" gradientTransform="translate(40.3111 29.9004) scale(3.04712 3.04719)">
<stop stop-color="#FFC90D"/>
<stop offset="1" stop-color="#FFC90D" stop-opacity="0"/>
</radialGradient>
<radialGradient id="paint4_radial_539_11768" cx="0" cy="0" r="1" gradientUnits="userSpaceOnUse" gradientTransform="translate(40.0679 28.6124) scale(3.04712 3.04699)">
<stop stop-color="#FFC90D"/>
<stop offset="1" stop-color="#FFC90D" stop-opacity="0"/>
</radialGradient>
<radialGradient id="paint5_radial_539_11768" cx="0" cy="0" r="1" gradientUnits="userSpaceOnUse" gradientTransform="translate(17.8607 33.7673) scale(3.0471 3.04717)">
<stop stop-color="#FFC90D"/>
<stop offset="1" stop-color="#FFC90D" stop-opacity="0"/>
</radialGradient>
<radialGradient id="paint6_radial_539_11768" cx="0" cy="0" r="1" gradientUnits="userSpaceOnUse" gradientTransform="translate(18.1063 32.4777) scale(3.04712 3.04716)">
<stop stop-color="#FFC90D"/>
<stop offset="1" stop-color="#FFC90D" stop-opacity="0"/>
</radialGradient>
<radialGradient id="paint7_radial_539_11768" cx="0" cy="0" r="1" gradientUnits="userSpaceOnUse" gradientTransform="translate(17.6246 31.1901) scale(3.0471 3.04716)">
<stop stop-color="#FFC90D"/>
<stop offset="1" stop-color="#FFC90D" stop-opacity="0"/>
</radialGradient>
<radialGradient id="paint8_radial_539_11768" cx="0" cy="0" r="1" gradientUnits="userSpaceOnUse" gradientTransform="translate(18.1063 29.9004) scale(3.04712 3.04719)">
<stop stop-color="#FFC90D"/>
<stop offset="1" stop-color="#FFC90D" stop-opacity="0"/>
</radialGradient>
<radialGradient id="paint9_radial_539_11768" cx="0" cy="0" r="1" gradientUnits="userSpaceOnUse" gradientTransform="translate(17.8607 28.6124) scale(3.0471 3.04699)">
<stop stop-color="#FFC90D"/>
<stop offset="1" stop-color="#FFC90D" stop-opacity="0"/>
</radialGradient>
<radialGradient id="paint10_radial_539_11768" cx="0" cy="0" r="1" gradientUnits="userSpaceOnUse" gradientTransform="translate(30.2447 33.6652) scale(3.04712 3.04716)">
<stop stop-color="#FFC90D"/>
<stop offset="1" stop-color="#FFC90D" stop-opacity="0"/>
</radialGradient>
<radialGradient id="paint11_radial_539_11768" cx="0" cy="0" r="1" gradientUnits="userSpaceOnUse" gradientTransform="translate(30.4903 32.3776) scale(3.04712 3.04717)">
<stop stop-color="#FFC90D"/>
<stop offset="1" stop-color="#FFC90D" stop-opacity="0"/>
</radialGradient>
<radialGradient id="paint12_radial_539_11768" cx="0" cy="0" r="1" gradientUnits="userSpaceOnUse" gradientTransform="translate(30.0086 31.0876) scale(3.04712 3.04716)">
<stop stop-color="#FFC90D"/>
<stop offset="1" stop-color="#FFC90D" stop-opacity="0"/>
</radialGradient>
<radialGradient id="paint13_radial_539_11768" cx="0" cy="0" r="1" gradientUnits="userSpaceOnUse" gradientTransform="translate(42.3974 41.8882) scale(31.4607 31.4607)">
<stop stop-color="#65D9D4"/>
<stop offset="1" stop-color="#0FB5AC" stop-opacity="0"/>
</radialGradient>
<radialGradient id="paint14_radial_539_11768" cx="0" cy="0" r="1" gradientUnits="userSpaceOnUse" gradientTransform="translate(21.213 72.3235) scale(20.1281 20.1281)">
<stop stop-color="#0FB5AC"/>
<stop offset="1" stop-color="#0FB5AC" stop-opacity="0"/>
</radialGradient>
<radialGradient id="paint15_radial_539_11768" cx="0" cy="0" r="1" gradientUnits="userSpaceOnUse" gradientTransform="translate(53.4795 75.2707) scale(18.3089 18.3089)">
<stop stop-color="#1F89DB"/>
<stop offset="1" stop-color="#CBEFFF"/>
</radialGradient>
</defs>
</svg>
